<?xml version="1.0" encoding="UTF-8"?>
<svg width="1280px" height="360px" viewBox="0 0 1280 360" version="1.1" xmlns="http://www.w3.org/2000/svg" xmlns:xlink="http://www.w3.org/1999/xlink">
    <!-- Generator: Sketch 52.2 (67145) - http://www.bohemiancoding.com/sketch -->
    <title>img</title>
    <desc>Created with Sketch.</desc>
    <defs>
        <linearGradient x1="100%" y1="0%" x2="0%" y2="109.523438%" id="linearGradient-1">
            <stop stop-color="#FAD961" offset="0%"></stop>
            <stop stop-color="#F76B1C" offset="100%"></stop>
        </linearGradient>
        <rect id="path-2" x="0" y="0" width="180" height="220" rx="10"></rect>
        <filter x="-3.3%" y="-3.2%" width="110.0%" height="108.2%" filterUnits="objectBoundingBox" id="filter-4">
            <feOffset dx="3" dy="2" in="SourceAlpha" result="shadowOffsetOuter1"></feOffset>
            <feGaussianBlur stdDeviation="2.5" in="shadowOffsetOuter1" result="shadowBlurOuter1"></feGaussianBlur>
            <feColorMatrix values="0 0 0 0 0   0 0 0 0 0   0 0 0 0 0  0 0 0 0.257982337 0" type="matrix" in="shadowBlurOuter1"></feColorMatrix>
        </filter>
        <rect id="path-5" x="5.68434189e-14" y="0" width="19.968543" height="59.1754866" rx="9.98427149"></rect>
        <rect id="path-7" x="0" y="0" width="19.968543" height="59.1754866" rx="9.98427149"></rect>
        <linearGradient x1="19.4848633%" y1="140.046387%" x2="81.159668%" y2="0%" id="linearGradient-9">
            <stop stop-color="#3023AE" offset="0%"></stop>
            <stop stop-color="#C86DD7" offset="100%"></stop>
        </linearGradient>
        <rect id="path-10" x="0" y="0" width="160" height="160" rx="10"></rect>
        <filter x="-3.8%" y="-4.4%" width="111.2%" height="111.2%" filterUnits="objectBoundingBox" id="filter-12">
            <feOffset dx="3" dy="2" in="SourceAlpha" result="shadowOffsetOuter1"></feOffset>
            <feGaussianBlur stdDeviation="2.5" in="shadowOffsetOuter1" result="shadowBlurOuter1"></feGaussianBlur>
            <feColorMatrix values="0 0 0 0 0   0 0 0 0 0   0 0 0 0 0  0 0 0 0.125990716 0" type="matrix" in="shadowBlurOuter1"></feColorMatrix>
        </filter>
        <linearGradient x1="-5.73620681%" y1="50%" x2="106.743921%" y2="50%" id="linearGradient-13">
            <stop stop-color="#000000" offset="0%"></stop>
            <stop stop-color="#4B697B" offset="27.2541206%"></stop>
            <stop stop-color="#4B697B" offset="73.0153279%"></stop>
            <stop stop-color="#000000" offset="100%"></stop>
        </linearGradient>
        <linearGradient x1="92.2460938%" y1="-17.9785156%" x2="17.3291016%" y2="112.490234%" id="linearGradient-14">
            <stop stop-color="#B0D031" offset="0%"></stop>
            <stop stop-color="#03B3A4" offset="100%"></stop>
        </linearGradient>
        <rect id="path-15" x="0" y="0" width="160" height="160" rx="10"></rect>
        <filter x="-3.8%" y="-4.4%" width="111.2%" height="111.2%" filterUnits="objectBoundingBox" id="filter-17">
            <feOffset dx="3" dy="2" in="SourceAlpha" result="shadowOffsetOuter1"></feOffset>
            <feGaussianBlur stdDeviation="2.5" in="shadowOffsetOuter1" result="shadowBlurOuter1"></feGaussianBlur>
            <feColorMatrix values="0 0 0 0 0   0 0 0 0 0   0 0 0 0 0  0 0 0 0.232082201 0" type="matrix" in="shadowBlurOuter1"></feColorMatrix>
        </filter>
        <linearGradient x1="71.1653646%" y1="6.02604167%" x2="13.2226562%" y2="168.776042%" id="linearGradient-18">
            <stop stop-color="#2999F7" offset="0%"></stop>
            <stop stop-color="#0E2AA1" offset="100%"></stop>
        </linearGradient>
        <rect id="path-19" x="0" y="0" width="120" height="150" rx="10"></rect>
        <filter x="-5.0%" y="-4.7%" width="115.0%" height="112.0%" filterUnits="objectBoundingBox" id="filter-21">
            <feOffset dx="3" dy="2" in="SourceAlpha" result="shadowOffsetOuter1"></feOffset>
            <feGaussianBlur stdDeviation="2.5" in="shadowOffsetOuter1" result="shadowBlurOuter1"></feGaussianBlur>
            <feColorMatrix values="0 0 0 0 0   0 0 0 0 0   0 0 0 0 0  0 0 0 0.299960371 0" type="matrix" in="shadowBlurOuter1"></feColorMatrix>
        </filter>
    </defs>
    <g id="Page-1" stroke="none" stroke-width="1" fill="none" fill-rule="evenodd">
        <g id="home2" transform="translate(-200.000000, -129.000000)">
            <g id="main3">
                <g id="img" transform="translate(200.000000, 64.000000)">
                    <g id="lang" transform="translate(0.000000, 126.000000)" fill="#FFFFFF">
                        <path d="M0,49.7175141 L9.03954802,49.7175141 L9.03954802,58.7570621 L0,58.7570621 L0,49.7175141 Z M0,61.0169492 L9.03954802,61.0169492 L9.03954802,70.0564972 L0,70.0564972 L0,61.0169492 Z M0,72.3163842 L9.03954802,72.3163842 L9.03954802,81.3559322 L0,81.3559322 L0,72.3163842 Z M0,83.6158192 L9.03954802,83.6158192 L9.03954802,92.6553672 L0,92.6553672 L0,83.6158192 Z M0,94.9152542 L9.03954802,94.9152542 L9.03954802,103.954802 L0,103.954802 L0,94.9152542 Z M11.299435,61.0169492 L20.3389831,61.0169492 L20.3389831,70.0564972 L11.299435,70.0564972 L11.299435,61.0169492 Z M11.299435,72.3163842 L20.3389831,72.3163842 L20.3389831,81.3559322 L11.299435,81.3559322 L11.299435,72.3163842 Z M11.299435,83.6158192 L20.3389831,83.6158192 L20.3389831,92.6553672 L11.299435,92.6553672 L11.299435,83.6158192 Z M11.299435,94.9152542 L20.3389831,94.9152542 L20.3389831,103.954802 L11.299435,103.954802 L11.299435,94.9152542 Z M22.5988701,49.7175141 L31.6384181,49.7175141 L31.6384181,58.7570621 L22.5988701,58.7570621 L22.5988701,49.7175141 Z M22.5988701,27.1186441 L31.6384181,27.1186441 L31.6384181,36.1581921 L22.5988701,36.1581921 L22.5988701,27.1186441 Z M22.5988701,61.0169492 L31.6384181,61.0169492 L31.6384181,70.0564972 L22.5988701,70.0564972 L22.5988701,61.0169492 Z M22.5988701,72.3163842 L31.6384181,72.3163842 L31.6384181,81.3559322 L22.5988701,81.3559322 L22.5988701,72.3163842 Z M22.5988701,83.6158192 L31.6384181,83.6158192 L31.6384181,92.6553672 L22.5988701,92.6553672 L22.5988701,83.6158192 Z M22.5988701,94.9152542 L31.6384181,94.9152542 L31.6384181,103.954802 L22.5988701,103.954802 L22.5988701,94.9152542 Z M33.8983051,49.7175141 L42.9378531,49.7175141 L42.9378531,58.7570621 L33.8983051,58.7570621 L33.8983051,49.7175141 Z M33.8983051,18.079096 L42.9378531,18.079096 L42.9378531,27.1186441 L33.8983051,27.1186441 L33.8983051,18.079096 Z M33.8983051,0 L42.9378531,0 L42.9378531,9.03954802 L33.8983051,9.03954802 L33.8983051,0 Z M33.8983051,61.0169492 L42.9378531,61.0169492 L42.9378531,70.0564972 L33.8983051,70.0564972 L33.8983051,61.0169492 Z M33.8983051,72.3163842 L42.9378531,72.3163842 L42.9378531,81.3559322 L33.8983051,81.3559322 L33.8983051,72.3163842 Z M33.8983051,83.6158192 L42.9378531,83.6158192 L42.9378531,92.6553672 L33.8983051,92.6553672 L33.8983051,83.6158192 Z M33.8983051,94.9152542 L42.9378531,94.9152542 L42.9378531,103.954802 L33.8983051,103.954802 L33.8983051,94.9152542 Z M45.1977401,72.3163842 L54.2372881,72.3163842 L54.2372881,81.3559322 L45.1977401,81.3559322 L45.1977401,72.3163842 Z M45.1977401,83.6158192 L54.2372881,83.6158192 L54.2372881,92.6553672 L45.1977401,92.6553672 L45.1977401,83.6158192 Z M45.1977401,94.9152542 L54.2372881,94.9152542 L54.2372881,103.954802 L45.1977401,103.954802 L45.1977401,94.9152542 Z M56.4971751,49.7175141 L65.5367232,49.7175141 L65.5367232,58.7570621 L56.4971751,58.7570621 L56.4971751,49.7175141 Z M56.4971751,38.4180791 L65.5367232,38.4180791 L65.5367232,47.4576271 L56.4971751,47.4576271 L56.4971751,38.4180791 Z M56.4971751,61.0169492 L65.5367232,61.0169492 L65.5367232,70.0564972 L56.4971751,70.0564972 L56.4971751,61.0169492 Z M56.4971751,72.3163842 L65.5367232,72.3163842 L65.5367232,81.3559322 L56.4971751,81.3559322 L56.4971751,72.3163842 Z M56.4971751,83.6158192 L65.5367232,83.6158192 L65.5367232,92.6553672 L56.4971751,92.6553672 L56.4971751,83.6158192 Z M56.4971751,94.9152542 L65.5367232,94.9152542 L65.5367232,103.954802 L56.4971751,103.954802 L56.4971751,94.9152542 Z M67.7966102,49.7175141 L76.8361582,49.7175141 L76.8361582,58.7570621 L67.7966102,58.7570621 L67.7966102,49.7175141 Z M67.7966102,38.4180791 L76.8361582,38.4180791 L76.8361582,47.4576271 L67.7966102,47.4576271 L67.7966102,38.4180791 Z M67.7966102,61.0169492 L76.8361582,61.0169492 L76.8361582,70.0564972 L67.7966102,70.0564972 L67.7966102,61.0169492 Z M67.7966102,15.819209 L76.8361582,15.819209 L76.8361582,24.8587571 L67.7966102,24.8587571 L67.7966102,15.819209 Z M67.7966102,4.51977401 L76.8361582,4.51977401 L76.8361582,13.559322 L67.7966102,13.559322 L67.7966102,4.51977401 Z M67.7966102,27.1186441 L76.8361582,27.1186441 L76.8361582,36.1581921 L67.7966102,36.1581921 L67.7966102,27.1186441 Z M67.7966102,72.3163842 L76.8361582,72.3163842 L76.8361582,81.3559322 L67.7966102,81.3559322 L67.7966102,72.3163842 Z M67.7966102,83.6158192 L76.8361582,83.6158192 L76.8361582,92.6553672 L67.7966102,92.6553672 L67.7966102,83.6158192 Z M67.7966102,94.9152542 L76.8361582,94.9152542 L76.8361582,103.954802 L67.7966102,103.954802 L67.7966102,94.9152542 Z M79.0960452,83.6158192 L88.1355932,83.6158192 L88.1355932,92.6553672 L79.0960452,92.6553672 L79.0960452,83.6158192 Z M79.0960452,72.3163842 L88.1355932,72.3163842 L88.1355932,81.3559322 L79.0960452,81.3559322 L79.0960452,72.3163842 Z M79.0960452,94.9152542 L88.1355932,94.9152542 L88.1355932,103.954802 L79.0960452,103.954802 L79.0960452,94.9152542 Z M79.0960452,49.7175141 L88.1355932,49.7175141 L88.1355932,58.7570621 L79.0960452,58.7570621 L79.0960452,49.7175141 Z M90.3954802,83.6158192 L99.4350282,83.6158192 L99.4350282,92.6553672 L90.3954802,92.6553672 L90.3954802,83.6158192 Z M90.3954802,72.3163842 L99.4350282,72.3163842 L99.4350282,81.3559322 L90.3954802,81.3559322 L90.3954802,72.3163842 Z M90.3954802,61.0169492 L99.4350282,61.0169492 L99.4350282,70.0564972 L90.3954802,70.0564972 L90.3954802,61.0169492 Z M90.3954802,33.8983051 L99.4350282,33.8983051 L99.4350282,42.9378531 L90.3954802,42.9378531 L90.3954802,33.8983051 Z M90.3954802,94.9152542 L99.4350282,94.9152542 L99.4350282,103.954802 L90.3954802,103.954802 L90.3954802,94.9152542 Z M101.694915,83.6158192 L110.734463,83.6158192 L110.734463,92.6553672 L101.694915,92.6553672 L101.694915,83.6158192 Z M101.694915,72.3163842 L110.734463,72.3163842 L110.734463,81.3559322 L101.694915,81.3559322 L101.694915,72.3163842 Z M101.694915,61.0169492 L110.734463,61.0169492 L110.734463,70.0564972 L101.694915,70.0564972 L101.694915,61.0169492 Z M101.694915,49.7175141 L110.734463,49.7175141 L110.734463,58.7570621 L101.694915,58.7570621 L101.694915,49.7175141 Z M101.694915,94.9152542 L110.734463,94.9152542 L110.734463,103.954802 L101.694915,103.954802 L101.694915,94.9152542 Z M112.99435,83.6158192 L122.033898,83.6158192 L122.033898,92.6553672 L112.99435,92.6553672 L112.99435,83.6158192 Z M112.99435,72.3163842 L122.033898,72.3163842 L122.033898,81.3559322 L112.99435,81.3559322 L112.99435,72.3163842 Z M112.99435,61.0169492 L122.033898,61.0169492 L122.033898,70.0564972 L112.99435,70.0564972 L112.99435,61.0169492 Z M112.99435,49.7175141 L122.033898,49.7175141 L122.033898,58.7570621 L112.99435,58.7570621 L112.99435,49.7175141 Z M112.99435,38.4180791 L122.033898,38.4180791 L122.033898,47.4576271 L112.99435,47.4576271 L112.99435,38.4180791 Z M112.99435,94.9152542 L122.033898,94.9152542 L122.033898,103.954802 L112.99435,103.954802 L112.99435,94.9152542 Z M124.293785,83.6158192 L133.333333,83.6158192 L133.333333,92.6553672 L124.293785,92.6553672 L124.293785,83.6158192 Z M124.293785,72.3163842 L133.333333,72.3163842 L133.333333,81.3559322 L124.293785,81.3559322 L124.293785,72.3163842 Z M124.293785,61.0169492 L133.333333,61.0169492 L133.333333,70.0564972 L124.293785,70.0564972 L124.293785,61.0169492 Z M124.293785,49.7175141 L133.333333,49.7175141 L133.333333,58.7570621 L124.293785,58.7570621 L124.293785,49.7175141 Z M124.293785,38.4180791 L133.333333,38.4180791 L133.333333,47.4576271 L124.293785,47.4576271 L124.293785,38.4180791 Z M124.293785,27.1186441 L133.333333,27.1186441 L133.333333,36.1581921 L124.293785,36.1581921 L124.293785,27.1186441 Z M124.293785,94.9152542 L133.333333,94.9152542 L133.333333,103.954802 L124.293785,103.954802 L124.293785,94.9152542 Z M135.59322,94.9152542 L144.632768,94.9152542 L144.632768,103.954802 L135.59322,103.954802 L135.59322,94.9152542 Z M146.892655,94.9152542 L155.932203,94.9152542 L155.932203,103.954802 L146.892655,103.954802 L146.892655,94.9152542 Z M146.892655,83.6158192 L155.932203,83.6158192 L155.932203,92.6553672 L146.892655,92.6553672 L146.892655,83.6158192 Z M158.19209,94.9152542 L167.231638,94.9152542 L167.231638,103.954802 L158.19209,103.954802 L158.19209,94.9152542 Z M158.19209,83.6158192 L167.231638,83.6158192 L167.231638,92.6553672 L158.19209,92.6553672 L158.19209,83.6158192 Z M158.19209,72.3163842 L167.231638,72.3163842 L167.231638,81.3559322 L158.19209,81.3559322 L158.19209,72.3163842 Z M158.19209,49.7175141 L167.231638,49.7175141 L167.231638,58.7570621 L158.19209,58.7570621 L158.19209,49.7175141 Z M169.491525,94.9152542 L178.531073,94.9152542 L178.531073,103.954802 L169.491525,103.954802 L169.491525,94.9152542 Z M169.491525,83.6158192 L178.531073,83.6158192 L178.531073,92.6553672 L169.491525,92.6553672 L169.491525,83.6158192 Z M169.491525,72.3163842 L178.531073,72.3163842 L178.531073,81.3559322 L169.491525,81.3559322 L169.491525,72.3163842 Z M169.491525,61.0169492 L178.531073,61.0169492 L178.531073,70.0564972 L169.491525,70.0564972 L169.491525,61.0169492 Z M169.491525,49.7175141 L178.531073,49.7175141 L178.531073,58.7570621 L169.491525,58.7570621 L169.491525,49.7175141 Z M169.491525,38.4180791 L178.531073,38.4180791 L178.531073,47.4576271 L169.491525,47.4576271 L169.491525,38.4180791 Z M169.491525,27.1186441 L178.531073,27.1186441 L178.531073,36.1581921 L169.491525,36.1581921 L169.491525,27.1186441 Z M169.491525,4.51977401 L178.531073,4.51977401 L178.531073,13.559322 L169.491525,13.559322 L169.491525,4.51977401 Z M180.79096,94.9152542 L189.830508,94.9152542 L189.830508,103.954802 L180.79096,103.954802 L180.79096,94.9152542 Z M180.79096,83.6158192 L189.830508,83.6158192 L189.830508,92.6553672 L180.79096,92.6553672 L180.79096,83.6158192 Z M180.79096,72.3163842 L189.830508,72.3163842 L189.830508,81.3559322 L180.79096,81.3559322 L180.79096,72.3163842 Z M180.79096,61.0169492 L189.830508,61.0169492 L189.830508,70.0564972 L180.79096,70.0564972 L180.79096,61.0169492 Z M180.79096,49.7175141 L189.830508,49.7175141 L189.830508,58.7570621 L180.79096,58.7570621 L180.79096,49.7175141 Z M192.090395,94.9152542 L201.129944,94.9152542 L201.129944,103.954802 L192.090395,103.954802 L192.090395,94.9152542 Z M192.090395,83.6158192 L201.129944,83.6158192 L201.129944,92.6553672 L192.090395,92.6553672 L192.090395,83.6158192 Z M192.090395,72.3163842 L201.129944,72.3163842 L201.129944,81.3559322 L192.090395,81.3559322 L192.090395,72.3163842 Z M192.090395,61.0169492 L201.129944,61.0169492 L201.129944,70.0564972 L192.090395,70.0564972 L192.090395,61.0169492 Z M203.389831,94.9152542 L212.429379,94.9152542 L212.429379,103.954802 L203.389831,103.954802 L203.389831,94.9152542 Z M203.389831,83.6158192 L212.429379,83.6158192 L212.429379,92.6553672 L203.389831,92.6553672 L203.389831,83.6158192 Z M203.389831,72.3163842 L212.429379,72.3163842 L212.429379,81.3559322 L203.389831,81.3559322 L203.389831,72.3163842 Z M214.689266,94.9152542 L223.728814,94.9152542 L223.728814,103.954802 L214.689266,103.954802 L214.689266,94.9152542 Z M214.689266,83.6158192 L223.728814,83.6158192 L223.728814,92.6553672 L214.689266,92.6553672 L214.689266,83.6158192 Z M214.689266,72.3163842 L223.728814,72.3163842 L223.728814,81.3559322 L214.689266,81.3559322 L214.689266,72.3163842 Z M214.689266,61.0169492 L223.728814,61.0169492 L223.728814,70.0564972 L214.689266,70.0564972 L214.689266,61.0169492 Z M225.988701,94.9152542 L235.028249,94.9152542 L235.028249,103.954802 L225.988701,103.954802 L225.988701,94.9152542 Z M225.988701,83.6158192 L235.028249,83.6158192 L235.028249,92.6553672 L225.988701,92.6553672 L225.988701,83.6158192 Z M225.988701,72.3163842 L235.028249,72.3163842 L235.028249,81.3559322 L225.988701,81.3559322 L225.988701,72.3163842 Z M237.288136,94.9152542 L246.327684,94.9152542 L246.327684,103.954802 L237.288136,103.954802 L237.288136,94.9152542 Z M237.288136,83.6158192 L246.327684,83.6158192 L246.327684,92.6553672 L237.288136,92.6553672 L237.288136,83.6158192 Z M237.288136,72.3163842 L246.327684,72.3163842 L246.327684,81.3559322 L237.288136,81.3559322 L237.288136,72.3163842 Z M237.288136,61.0169492 L246.327684,61.0169492 L246.327684,70.0564972 L237.288136,70.0564972 L237.288136,61.0169492 Z M248.587571,94.9152542 L257.627119,94.9152542 L257.627119,103.954802 L248.587571,103.954802 L248.587571,94.9152542 Z M248.587571,83.6158192 L257.627119,83.6158192 L257.627119,92.6553672 L248.587571,92.6553672 L248.587571,83.6158192 Z M248.587571,72.3163842 L257.627119,72.3163842 L257.627119,81.3559322 L248.587571,81.3559322 L248.587571,72.3163842 Z M248.587571,61.0169492 L257.627119,61.0169492 L257.627119,70.0564972 L248.587571,70.0564972 L248.587571,61.0169492 Z M248.587571,49.7175141 L257.627119,49.7175141 L257.627119,58.7570621 L248.587571,58.7570621 L248.587571,49.7175141 Z M248.587571,38.4180791 L257.627119,38.4180791 L257.627119,47.4576271 L248.587571,47.4576271 L248.587571,38.4180791 Z M259.887006,94.9152542 L268.926554,94.9152542 L268.926554,103.954802 L259.887006,103.954802 L259.887006,94.9152542 Z M259.887006,83.6158192 L268.926554,83.6158192 L268.926554,92.6553672 L259.887006,92.6553672 L259.887006,83.6158192 Z M259.887006,49.7175141 L268.926554,49.7175141 L268.926554,58.7570621 L259.887006,58.7570621 L259.887006,49.7175141 Z M271.186441,94.9152542 L280.225989,94.9152542 L280.225989,103.954802 L271.186441,103.954802 L271.186441,94.9152542 Z M282.485876,94.9152542 L291.525424,94.9152542 L291.525424,103.954802 L282.485876,103.954802 L282.485876,94.9152542 Z M293.785311,94.9152542 L302.824859,94.9152542 L302.824859,103.954802 L293.785311,103.954802 L293.785311,94.9152542 Z M293.785311,83.6158192 L302.824859,83.6158192 L302.824859,92.6553672 L293.785311,92.6553672 L293.785311,83.6158192 Z M293.785311,72.3163842 L302.824859,72.3163842 L302.824859,81.3559322 L293.785311,81.3559322 L293.785311,72.3163842 Z M293.785311,49.7175141 L302.824859,49.7175141 L302.824859,58.7570621 L293.785311,58.7570621 L293.785311,49.7175141 Z M305.084746,94.9152542 L314.124294,94.9152542 L314.124294,103.954802 L305.084746,103.954802 L305.084746,94.9152542 Z M305.084746,83.6158192 L314.124294,83.6158192 L314.124294,92.6553672 L305.084746,92.6553672 L305.084746,83.6158192 Z M305.084746,61.0169492 L314.124294,61.0169492 L314.124294,70.0564972 L305.084746,70.0564972 L305.084746,61.0169492 Z M305.084746,49.7175141 L314.124294,49.7175141 L314.124294,58.7570621 L305.084746,58.7570621 L305.084746,49.7175141 Z M316.384181,94.9152542 L325.423729,94.9152542 L325.423729,103.954802 L316.384181,103.954802 L316.384181,94.9152542 Z M316.384181,83.6158192 L325.423729,83.6158192 L325.423729,92.6553672 L316.384181,92.6553672 L316.384181,83.6158192 Z M316.384181,72.3163842 L325.423729,72.3163842 L325.423729,81.3559322 L316.384181,81.3559322 L316.384181,72.3163842 Z M316.384181,61.0169492 L325.423729,61.0169492 L325.423729,70.0564972 L316.384181,70.0564972 L316.384181,61.0169492 Z M316.384181,49.7175141 L325.423729,49.7175141 L325.423729,58.7570621 L316.384181,58.7570621 L316.384181,49.7175141 Z M316.384181,27.1186441 L325.423729,27.1186441 L325.423729,36.1581921 L316.384181,36.1581921 L316.384181,27.1186441 Z M327.683616,94.9152542 L336.723164,94.9152542 L336.723164,103.954802 L327.683616,103.954802 L327.683616,94.9152542 Z M327.683616,83.6158192 L336.723164,83.6158192 L336.723164,92.6553672 L327.683616,92.6553672 L327.683616,83.6158192 Z M327.683616,72.3163842 L336.723164,72.3163842 L336.723164,81.3559322 L327.683616,81.3559322 L327.683616,72.3163842 Z M327.683616,61.0169492 L336.723164,61.0169492 L336.723164,70.0564972 L327.683616,70.0564972 L327.683616,61.0169492 Z M327.683616,38.4180791 L336.723164,38.4180791 L336.723164,47.4576271 L327.683616,47.4576271 L327.683616,38.4180791 Z M338.983051,94.9152542 L348.022599,94.9152542 L348.022599,103.954802 L338.983051,103.954802 L338.983051,94.9152542 Z M338.983051,83.6158192 L348.022599,83.6158192 L348.022599,92.6553672 L338.983051,92.6553672 L338.983051,83.6158192 Z M338.983051,72.3163842 L348.022599,72.3163842 L348.022599,81.3559322 L338.983051,81.3559322 L338.983051,72.3163842 Z M350.282486,94.9152542 L359.322034,94.9152542 L359.322034,103.954802 L350.282486,103.954802 L350.282486,94.9152542 Z M350.282486,83.6158192 L359.322034,83.6158192 L359.322034,92.6553672 L350.282486,92.6553672 L350.282486,83.6158192 Z M350.282486,72.3163842 L359.322034,72.3163842 L359.322034,81.3559322 L350.282486,81.3559322 L350.282486,72.3163842 Z M350.282486,61.0169492 L359.322034,61.0169492 L359.322034,70.0564972 L350.282486,70.0564972 L350.282486,61.0169492 Z M361.581921,94.9152542 L370.621469,94.9152542 L370.621469,103.954802 L361.581921,103.954802 L361.581921,94.9152542 Z M361.581921,83.6158192 L370.621469,83.6158192 L370.621469,92.6553672 L361.581921,92.6553672 L361.581921,83.6158192 Z M361.581921,72.3163842 L370.621469,72.3163842 L370.621469,81.3559322 L361.581921,81.3559322 L361.581921,72.3163842 Z M361.581921,61.0169492 L370.621469,61.0169492 L370.621469,70.0564972 L361.581921,70.0564972 L361.581921,61.0169492 Z M361.581921,49.7175141 L370.621469,49.7175141 L370.621469,58.7570621 L361.581921,58.7570621 L361.581921,49.7175141 Z M372.881356,94.9152542 L381.920904,94.9152542 L381.920904,103.954802 L372.881356,103.954802 L372.881356,94.9152542 Z M372.881356,83.6158192 L381.920904,83.6158192 L381.920904,92.6553672 L372.881356,92.6553672 L372.881356,83.6158192 Z M372.881356,72.3163842 L381.920904,72.3163842 L381.920904,81.3559322 L372.881356,81.3559322 L372.881356,72.3163842 Z M372.881356,49.7175141 L381.920904,49.7175141 L381.920904,58.7570621 L372.881356,58.7570621 L372.881356,49.7175141 Z M372.881356,38.4180791 L381.920904,38.4180791 L381.920904,47.4576271 L372.881356,47.4576271 L372.881356,38.4180791 Z M384.180791,94.9152542 L393.220339,94.9152542 L393.220339,103.954802 L384.180791,103.954802 L384.180791,94.9152542 Z M384.180791,83.6158192 L393.220339,83.6158192 L393.220339,92.6553672 L384.180791,92.6553672 L384.180791,83.6158192 Z M384.180791,72.3163842 L393.220339,72.3163842 L393.220339,81.3559322 L384.180791,81.3559322 L384.180791,72.3163842 Z M384.180791,61.0169492 L393.220339,61.0169492 L393.220339,70.0564972 L384.180791,70.0564972 L384.180791,61.0169492 Z M384.180791,49.7175141 L393.220339,49.7175141 L393.220339,58.7570621 L384.180791,58.7570621 L384.180791,49.7175141 Z M384.180791,38.4180791 L393.220339,38.4180791 L393.220339,47.4576271 L384.180791,47.4576271 L384.180791,38.4180791 Z M395.480226,94.9152542 L404.519774,94.9152542 L404.519774,103.954802 L395.480226,103.954802 L395.480226,94.9152542 Z M418.079096,94.9152542 L427.118644,94.9152542 L427.118644,103.954802 L418.079096,103.954802 L418.079096,94.9152542 Z M429.378531,94.9152542 L438.418079,94.9152542 L438.418079,103.954802 L429.378531,103.954802 L429.378531,94.9152542 Z M429.378531,72.3163842 L438.418079,72.3163842 L438.418079,81.3559322 L429.378531,81.3559322 L429.378531,72.3163842 Z M429.378531,49.7175141 L438.418079,49.7175141 L438.418079,58.7570621 L429.378531,58.7570621 L429.378531,49.7175141 Z M406.779661,94.9152542 L415.819209,94.9152542 L415.819209,103.954802 L406.779661,103.954802 L406.779661,94.9152542 Z M406.779661,83.6158192 L415.819209,83.6158192 L415.819209,92.6553672 L406.779661,92.6553672 L406.779661,83.6158192 Z M440.677966,94.9152542 L449.717514,94.9152542 L449.717514,103.954802 L440.677966,103.954802 L440.677966,94.9152542 Z M440.677966,83.6158192 L449.717514,83.6158192 L449.717514,92.6553672 L440.677966,92.6553672 L440.677966,83.6158192 Z M451.977401,94.9152542 L461.016949,94.9152542 L461.016949,103.954802 L451.977401,103.954802 L451.977401,94.9152542 Z M451.977401,83.6158192 L461.016949,83.6158192 L461.016949,92.6553672 L451.977401,92.6553672 L451.977401,83.6158192 Z M451.977401,72.3163842 L461.016949,72.3163842 L461.016949,81.3559322 L451.977401,81.3559322 L451.977401,72.3163842 Z M463.276836,94.9152542 L472.316384,94.9152542 L472.316384,103.954802 L463.276836,103.954802 L463.276836,94.9152542 Z M474.576271,94.9152542 L483.615819,94.9152542 L483.615819,103.954802 L474.576271,103.954802 L474.576271,94.9152542 Z M463.276836,83.6158192 L472.316384,83.6158192 L472.316384,92.6553672 L463.276836,92.6553672 L463.276836,83.6158192 Z M463.276836,72.3163842 L472.316384,72.3163842 L472.316384,81.3559322 L463.276836,81.3559322 L463.276836,72.3163842 Z M463.276836,61.0169492 L472.316384,61.0169492 L472.316384,70.0564972 L463.276836,70.0564972 L463.276836,61.0169492 Z M463.276836,49.7175141 L472.316384,49.7175141 L472.316384,58.7570621 L463.276836,58.7570621 L463.276836,49.7175141 Z M463.276836,27.1186441 L472.316384,27.1186441 L472.316384,36.1581921 L463.276836,36.1581921 L463.276836,27.1186441 Z M485.875706,94.9152542 L494.915254,94.9152542 L494.915254,103.954802 L485.875706,103.954802 L485.875706,94.9152542 Z M485.875706,83.6158192 L494.915254,83.6158192 L494.915254,92.6553672 L485.875706,92.6553672 L485.875706,83.6158192 Z M485.875706,72.3163842 L494.915254,72.3163842 L494.915254,81.3559322 L485.875706,81.3559322 L485.875706,72.3163842 Z M485.875706,61.0169492 L494.915254,61.0169492 L494.915254,70.0564972 L485.875706,70.0564972 L485.875706,61.0169492 Z M485.875706,49.7175141 L494.915254,49.7175141 L494.915254,58.7570621 L485.875706,58.7570621 L485.875706,49.7175141 Z M485.875706,38.4180791 L494.915254,38.4180791 L494.915254,47.4576271 L485.875706,47.4576271 L485.875706,38.4180791 Z M485.875706,27.1186441 L494.915254,27.1186441 L494.915254,36.1581921 L485.875706,36.1581921 L485.875706,27.1186441 Z M519.774011,94.9152542 L528.813559,94.9152542 L528.813559,103.954802 L519.774011,103.954802 L519.774011,94.9152542 Z M519.774011,83.6158192 L528.813559,83.6158192 L528.813559,92.6553672 L519.774011,92.6553672 L519.774011,83.6158192 Z M519.774011,72.3163842 L528.813559,72.3163842 L528.813559,81.3559322 L519.774011,81.3559322 L519.774011,72.3163842 Z M519.774011,61.0169492 L528.813559,61.0169492 L528.813559,70.0564972 L519.774011,70.0564972 L519.774011,61.0169492 Z M519.774011,49.7175141 L528.813559,49.7175141 L528.813559,58.7570621 L519.774011,58.7570621 L519.774011,49.7175141 Z M519.774011,38.4180791 L528.813559,38.4180791 L528.813559,47.4576271 L519.774011,47.4576271 L519.774011,38.4180791 Z M485.875706,15.819209 L494.915254,15.819209 L494.915254,24.8587571 L485.875706,24.8587571 L485.875706,15.819209 Z M485.875706,4.51977401 L494.915254,4.51977401 L494.915254,13.559322 L485.875706,13.559322 L485.875706,4.51977401 Z M508.474576,94.9152542 L517.514124,94.9152542 L517.514124,103.954802 L508.474576,103.954802 L508.474576,94.9152542 Z M497.175141,94.9152542 L506.214689,94.9152542 L506.214689,103.954802 L497.175141,103.954802 L497.175141,94.9152542 Z M497.175141,83.6158192 L506.214689,83.6158192 L506.214689,92.6553672 L497.175141,92.6553672 L497.175141,83.6158192 Z M531.073446,94.9152542 L540.112994,94.9152542 L540.112994,103.954802 L531.073446,103.954802 L531.073446,94.9152542 Z M531.073446,83.6158192 L540.112994,83.6158192 L540.112994,92.6553672 L531.073446,92.6553672 L531.073446,83.6158192 Z M531.073446,72.3163842 L540.112994,72.3163842 L540.112994,81.3559322 L531.073446,81.3559322 L531.073446,72.3163842 Z M531.073446,61.0169492 L540.112994,61.0169492 L540.112994,70.0564972 L531.073446,70.0564972 L531.073446,61.0169492 Z M531.073446,49.7175141 L540.112994,49.7175141 L540.112994,58.7570621 L531.073446,58.7570621 L531.073446,49.7175141 Z M542.372881,94.9152542 L551.412429,94.9152542 L551.412429,103.954802 L542.372881,103.954802 L542.372881,94.9152542 Z M542.372881,83.6158192 L551.412429,83.6158192 L551.412429,92.6553672 L542.372881,92.6553672 L542.372881,83.6158192 Z M542.372881,72.3163842 L551.412429,72.3163842 L551.412429,81.3559322 L542.372881,81.3559322 L542.372881,72.3163842 Z M542.372881,61.0169492 L551.412429,61.0169492 L551.412429,70.0564972 L542.372881,70.0564972 L542.372881,61.0169492 Z M553.672316,94.9152542 L562.711864,94.9152542 L562.711864,103.954802 L553.672316,103.954802 L553.672316,94.9152542 Z M553.672316,83.6158192 L562.711864,83.6158192 L562.711864,92.6553672 L553.672316,92.6553672 L553.672316,83.6158192 Z M553.672316,72.3163842 L562.711864,72.3163842 L562.711864,81.3559322 L553.672316,81.3559322 L553.672316,72.3163842 Z M564.971751,94.9152542 L574.011299,94.9152542 L574.011299,103.954802 L564.971751,103.954802 L564.971751,94.9152542 Z M564.971751,83.6158192 L574.011299,83.6158192 L574.011299,92.6553672 L564.971751,92.6553672 L564.971751,83.6158192 Z M564.971751,72.3163842 L574.011299,72.3163842 L574.011299,81.3559322 L564.971751,81.3559322 L564.971751,72.3163842 Z M564.971751,61.0169492 L574.011299,61.0169492 L574.011299,70.0564972 L564.971751,70.0564972 L564.971751,61.0169492 Z M564.971751,49.7175141 L574.011299,49.7175141 L574.011299,58.7570621 L564.971751,58.7570621 L564.971751,49.7175141 Z M564.971751,38.4180791 L574.011299,38.4180791 L574.011299,47.4576271 L564.971751,47.4576271 L564.971751,38.4180791 Z M576.271186,94.9152542 L585.310734,94.9152542 L585.310734,103.954802 L576.271186,103.954802 L576.271186,94.9152542 Z M576.271186,83.6158192 L585.310734,83.6158192 L585.310734,92.6553672 L576.271186,92.6553672 L576.271186,83.6158192 Z M576.271186,72.3163842 L585.310734,72.3163842 L585.310734,81.3559322 L576.271186,81.3559322 L576.271186,72.3163842 Z M576.271186,61.0169492 L585.310734,61.0169492 L585.310734,70.0564972 L576.271186,70.0564972 L576.271186,61.0169492 Z M576.271186,49.7175141 L585.310734,49.7175141 L585.310734,58.7570621 L576.271186,58.7570621 L576.271186,49.7175141 Z M576.271186,38.4180791 L585.310734,38.4180791 L585.310734,47.4576271 L576.271186,47.4576271 L576.271186,38.4180791 Z M587.570621,94.9152542 L596.610169,94.9152542 L596.610169,103.954802 L587.570621,103.954802 L587.570621,94.9152542 Z M587.570621,83.6158192 L596.610169,83.6158192 L596.610169,92.6553672 L587.570621,92.6553672 L587.570621,83.6158192 Z M587.570621,72.3163842 L596.610169,72.3163842 L596.610169,81.3559322 L587.570621,81.3559322 L587.570621,72.3163842 Z M587.570621,61.0169492 L596.610169,61.0169492 L596.610169,70.0564972 L587.570621,70.0564972 L587.570621,61.0169492 Z M587.570621,49.7175141 L596.610169,49.7175141 L596.610169,58.7570621 L587.570621,58.7570621 L587.570621,49.7175141 Z M598.870056,94.9152542 L607.909605,94.9152542 L607.909605,103.954802 L598.870056,103.954802 L598.870056,94.9152542 Z M610.169492,94.9152542 L619.20904,94.9152542 L619.20904,103.954802 L610.169492,103.954802 L610.169492,94.9152542 Z M621.468927,94.9152542 L630.508475,94.9152542 L630.508475,103.954802 L621.468927,103.954802 L621.468927,94.9152542 Z M598.870056,83.6158192 L607.909605,83.6158192 L607.909605,92.6553672 L598.870056,92.6553672 L598.870056,83.6158192 Z M598.870056,72.3163842 L607.909605,72.3163842 L607.909605,81.3559322 L598.870056,81.3559322 L598.870056,72.3163842 Z M598.870056,49.7175141 L607.909605,49.7175141 L607.909605,58.7570621 L598.870056,58.7570621 L598.870056,49.7175141 Z M632.768362,94.9152542 L641.80791,94.9152542 L641.80791,103.954802 L632.768362,103.954802 L632.768362,94.9152542 Z M632.768362,83.6158192 L641.80791,83.6158192 L641.80791,92.6553672 L632.768362,92.6553672 L632.768362,83.6158192 Z M632.768362,72.3163842 L641.80791,72.3163842 L641.80791,81.3559322 L632.768362,81.3559322 L632.768362,72.3163842 Z M632.768362,61.0169492 L641.80791,61.0169492 L641.80791,70.0564972 L632.768362,70.0564972 L632.768362,61.0169492 Z M632.768362,49.7175141 L641.80791,49.7175141 L641.80791,58.7570621 L632.768362,58.7570621 L632.768362,49.7175141 Z M632.768362,38.4180791 L641.80791,38.4180791 L641.80791,47.4576271 L632.768362,47.4576271 L632.768362,38.4180791 Z M644.067797,94.9152542 L653.107345,94.9152542 L653.107345,103.954802 L644.067797,103.954802 L644.067797,94.9152542 Z M644.067797,83.6158192 L653.107345,83.6158192 L653.107345,92.6553672 L644.067797,92.6553672 L644.067797,83.6158192 Z M644.067797,72.3163842 L653.107345,72.3163842 L653.107345,81.3559322 L644.067797,81.3559322 L644.067797,72.3163842 Z M644.067797,61.0169492 L653.107345,61.0169492 L653.107345,70.0564972 L644.067797,70.0564972 L644.067797,61.0169492 Z M655.367232,94.9152542 L664.40678,94.9152542 L664.40678,103.954802 L655.367232,103.954802 L655.367232,94.9152542 Z M655.367232,83.6158192 L664.40678,83.6158192 L664.40678,92.6553672 L655.367232,92.6553672 L655.367232,83.6158192 Z M655.367232,72.3163842 L664.40678,72.3163842 L664.40678,81.3559322 L655.367232,81.3559322 L655.367232,72.3163842 Z M666.666667,94.9152542 L675.706215,94.9152542 L675.706215,103.954802 L666.666667,103.954802 L666.666667,94.9152542 Z M666.666667,83.6158192 L675.706215,83.6158192 L675.706215,92.6553672 L666.666667,92.6553672 L666.666667,83.6158192 Z M666.666667,72.3163842 L675.706215,72.3163842 L675.706215,81.3559322 L666.666667,81.3559322 L666.666667,72.3163842 Z M666.666667,61.0169492 L675.706215,61.0169492 L675.706215,70.0564972 L666.666667,70.0564972 L666.666667,61.0169492 Z M677.966102,94.9152542 L687.00565,94.9152542 L687.00565,103.954802 L677.966102,103.954802 L677.966102,94.9152542 Z M677.966102,83.6158192 L687.00565,83.6158192 L687.00565,92.6553672 L677.966102,92.6553672 L677.966102,83.6158192 Z M677.966102,72.3163842 L687.00565,72.3163842 L687.00565,81.3559322 L677.966102,81.3559322 L677.966102,72.3163842 Z M689.265537,94.9152542 L698.305085,94.9152542 L698.305085,103.954802 L689.265537,103.954802 L689.265537,94.9152542 Z M689.265537,83.6158192 L698.305085,83.6158192 L698.305085,92.6553672 L689.265537,92.6553672 L689.265537,83.6158192 Z M689.265537,72.3163842 L698.305085,72.3163842 L698.305085,81.3559322 L689.265537,81.3559322 L689.265537,72.3163842 Z M689.265537,61.0169492 L698.305085,61.0169492 L698.305085,70.0564972 L689.265537,70.0564972 L689.265537,61.0169492 Z M700.564972,94.9152542 L709.60452,94.9152542 L709.60452,103.954802 L700.564972,103.954802 L700.564972,94.9152542 Z M700.564972,83.6158192 L709.60452,83.6158192 L709.60452,92.6553672 L700.564972,92.6553672 L700.564972,83.6158192 Z M700.564972,72.3163842 L709.60452,72.3163842 L709.60452,81.3559322 L700.564972,81.3559322 L700.564972,72.3163842 Z M700.564972,61.0169492 L709.60452,61.0169492 L709.60452,70.0564972 L700.564972,70.0564972 L700.564972,61.0169492 Z M700.564972,49.7175141 L709.60452,49.7175141 L709.60452,58.7570621 L700.564972,58.7570621 L700.564972,49.7175141 Z M711.864407,94.9152542 L720.903955,94.9152542 L720.903955,103.954802 L711.864407,103.954802 L711.864407,94.9152542 Z M711.864407,83.6158192 L720.903955,83.6158192 L720.903955,92.6553672 L711.864407,92.6553672 L711.864407,83.6158192 Z M711.864407,72.3163842 L720.903955,72.3163842 L720.903955,81.3559322 L711.864407,81.3559322 L711.864407,72.3163842 Z M711.864407,61.0169492 L720.903955,61.0169492 L720.903955,70.0564972 L711.864407,70.0564972 L711.864407,61.0169492 Z M711.864407,49.7175141 L720.903955,49.7175141 L720.903955,58.7570621 L711.864407,58.7570621 L711.864407,49.7175141 Z M711.864407,38.4180791 L720.903955,38.4180791 L720.903955,47.4576271 L711.864407,47.4576271 L711.864407,38.4180791 Z M711.864407,27.1186441 L720.903955,27.1186441 L720.903955,36.1581921 L711.864407,36.1581921 L711.864407,27.1186441 Z M711.864407,4.51977401 L720.903955,4.51977401 L720.903955,13.559322 L711.864407,13.559322 L711.864407,4.51977401 Z M723.163842,94.9152542 L732.20339,94.9152542 L732.20339,103.954802 L723.163842,103.954802 L723.163842,94.9152542 Z M723.163842,83.6158192 L732.20339,83.6158192 L732.20339,92.6553672 L723.163842,92.6553672 L723.163842,83.6158192 Z M734.463277,94.9152542 L743.502825,94.9152542 L743.502825,103.954802 L734.463277,103.954802 L734.463277,94.9152542 Z M745.762712,94.9152542 L754.80226,94.9152542 L754.80226,103.954802 L745.762712,103.954802 L745.762712,94.9152542 Z M734.463277,83.6158192 L743.502825,83.6158192 L743.502825,92.6553672 L734.463277,92.6553672 L734.463277,83.6158192 Z M723.163842,72.3163842 L732.20339,72.3163842 L732.20339,81.3559322 L723.163842,81.3559322 L723.163842,72.3163842 Z M723.163842,49.7175141 L732.20339,49.7175141 L732.20339,58.7570621 L723.163842,58.7570621 L723.163842,49.7175141 Z M757.062147,94.9152542 L766.101695,94.9152542 L766.101695,103.954802 L757.062147,103.954802 L757.062147,94.9152542 Z M757.062147,83.6158192 L766.101695,83.6158192 L766.101695,92.6553672 L757.062147,92.6553672 L757.062147,83.6158192 Z M757.062147,72.3163842 L766.101695,72.3163842 L766.101695,81.3559322 L757.062147,81.3559322 L757.062147,72.3163842 Z M768.361582,94.9152542 L777.40113,94.9152542 L777.40113,103.954802 L768.361582,103.954802 L768.361582,94.9152542 Z M768.361582,83.6158192 L777.40113,83.6158192 L777.40113,92.6553672 L768.361582,92.6553672 L768.361582,83.6158192 Z M768.361582,72.3163842 L777.40113,72.3163842 L777.40113,81.3559322 L768.361582,81.3559322 L768.361582,72.3163842 Z M768.361582,61.0169492 L777.40113,61.0169492 L777.40113,70.0564972 L768.361582,70.0564972 L768.361582,61.0169492 Z M768.361582,49.7175141 L777.40113,49.7175141 L777.40113,58.7570621 L768.361582,58.7570621 L768.361582,49.7175141 Z M768.361582,38.4180791 L777.40113,38.4180791 L777.40113,47.4576271 L768.361582,47.4576271 L768.361582,38.4180791 Z M779.661017,94.9152542 L788.700565,94.9152542 L788.700565,103.954802 L779.661017,103.954802 L779.661017,94.9152542 Z M779.661017,72.3163842 L788.700565,72.3163842 L788.700565,81.3559322 L779.661017,81.3559322 L779.661017,72.3163842 Z M790.960452,94.9152542 L800,94.9152542 L800,103.954802 L790.960452,103.954802 L790.960452,94.9152542 Z M790.960452,83.6158192 L800,83.6158192 L800,92.6553672 L790.960452,92.6553672 L790.960452,83.6158192 Z M790.960452,72.3163842 L800,72.3163842 L800,81.3559322 L790.960452,81.3559322 L790.960452,72.3163842 Z M790.960452,61.0169492 L800,61.0169492 L800,70.0564972 L790.960452,70.0564972 L790.960452,61.0169492 Z" id="Combined-Shape" opacity="0.25"></path>
                        <path d="M0,157.717514 L9.03954802,157.717514 L9.03954802,166.757062 L0,166.757062 L0,157.717514 Z M0,169.016949 L9.03954802,169.016949 L9.03954802,178.056497 L0,178.056497 L0,169.016949 Z M0,180.316384 L9.03954802,180.316384 L9.03954802,189.355932 L0,189.355932 L0,180.316384 Z M0,191.615819 L9.03954802,191.615819 L9.03954802,200.655367 L0,200.655367 L0,191.615819 Z M0,202.915254 L9.03954802,202.915254 L9.03954802,211.954802 L0,211.954802 L0,202.915254 Z M11.299435,169.016949 L20.3389831,169.016949 L20.3389831,178.056497 L11.299435,178.056497 L11.299435,169.016949 Z M11.299435,180.316384 L20.3389831,180.316384 L20.3389831,189.355932 L11.299435,189.355932 L11.299435,180.316384 Z M11.299435,191.615819 L20.3389831,191.615819 L20.3389831,200.655367 L11.299435,200.655367 L11.299435,191.615819 Z M11.299435,202.915254 L20.3389831,202.915254 L20.3389831,211.954802 L11.299435,211.954802 L11.299435,202.915254 Z M22.5988701,157.717514 L31.6384181,157.717514 L31.6384181,166.757062 L22.5988701,166.757062 L22.5988701,157.717514 Z M22.5988701,135.118644 L31.6384181,135.118644 L31.6384181,144.158192 L22.5988701,144.158192 L22.5988701,135.118644 Z M22.5988701,169.016949 L31.6384181,169.016949 L31.6384181,178.056497 L22.5988701,178.056497 L22.5988701,169.016949 Z M22.5988701,180.316384 L31.6384181,180.316384 L31.6384181,189.355932 L22.5988701,189.355932 L22.5988701,180.316384 Z M22.5988701,191.615819 L31.6384181,191.615819 L31.6384181,200.655367 L22.5988701,200.655367 L22.5988701,191.615819 Z M22.5988701,202.915254 L31.6384181,202.915254 L31.6384181,211.954802 L22.5988701,211.954802 L22.5988701,202.915254 Z M33.8983051,157.717514 L42.9378531,157.717514 L42.9378531,166.757062 L33.8983051,166.757062 L33.8983051,157.717514 Z M33.8983051,126.079096 L42.9378531,126.079096 L42.9378531,135.118644 L33.8983051,135.118644 L33.8983051,126.079096 Z M33.8983051,108 L42.9378531,108 L42.9378531,117.039548 L33.8983051,117.039548 L33.8983051,108 Z M33.8983051,169.016949 L42.9378531,169.016949 L42.9378531,178.056497 L33.8983051,178.056497 L33.8983051,169.016949 Z M33.8983051,180.316384 L42.9378531,180.316384 L42.9378531,189.355932 L33.8983051,189.355932 L33.8983051,180.316384 Z M33.8983051,191.615819 L42.9378531,191.615819 L42.9378531,200.655367 L33.8983051,200.655367 L33.8983051,191.615819 Z M33.8983051,202.915254 L42.9378531,202.915254 L42.9378531,211.954802 L33.8983051,211.954802 L33.8983051,202.915254 Z M45.1977401,180.316384 L54.2372881,180.316384 L54.2372881,189.355932 L45.1977401,189.355932 L45.1977401,180.316384 Z M45.1977401,191.615819 L54.2372881,191.615819 L54.2372881,200.655367 L45.1977401,200.655367 L45.1977401,191.615819 Z M45.1977401,202.915254 L54.2372881,202.915254 L54.2372881,211.954802 L45.1977401,211.954802 L45.1977401,202.915254 Z M56.4971751,157.717514 L65.5367232,157.717514 L65.5367232,166.757062 L56.4971751,166.757062 L56.4971751,157.717514 Z M56.4971751,146.418079 L65.5367232,146.418079 L65.5367232,155.457627 L56.4971751,155.457627 L56.4971751,146.418079 Z M56.4971751,169.016949 L65.5367232,169.016949 L65.5367232,178.056497 L56.4971751,178.056497 L56.4971751,169.016949 Z M56.4971751,180.316384 L65.5367232,180.316384 L65.5367232,189.355932 L56.4971751,189.355932 L56.4971751,180.316384 Z M56.4971751,191.615819 L65.5367232,191.615819 L65.5367232,200.655367 L56.4971751,200.655367 L56.4971751,191.615819 Z M56.4971751,202.915254 L65.5367232,202.915254 L65.5367232,211.954802 L56.4971751,211.954802 L56.4971751,202.915254 Z M67.7966102,157.717514 L76.8361582,157.717514 L76.8361582,166.757062 L67.7966102,166.757062 L67.7966102,157.717514 Z M67.7966102,146.418079 L76.8361582,146.418079 L76.8361582,155.457627 L67.7966102,155.457627 L67.7966102,146.418079 Z M67.7966102,169.016949 L76.8361582,169.016949 L76.8361582,178.056497 L67.7966102,178.056497 L67.7966102,169.016949 Z M67.7966102,123.819209 L76.8361582,123.819209 L76.8361582,132.858757 L67.7966102,132.858757 L67.7966102,123.819209 Z M67.7966102,112.519774 L76.8361582,112.519774 L76.8361582,121.559322 L67.7966102,121.559322 L67.7966102,112.519774 Z M67.7966102,135.118644 L76.8361582,135.118644 L76.8361582,144.158192 L67.7966102,144.158192 L67.7966102,135.118644 Z M67.7966102,180.316384 L76.8361582,180.316384 L76.8361582,189.355932 L67.7966102,189.355932 L67.7966102,180.316384 Z M67.7966102,191.615819 L76.8361582,191.615819 L76.8361582,200.655367 L67.7966102,200.655367 L67.7966102,191.615819 Z M67.7966102,202.915254 L76.8361582,202.915254 L76.8361582,211.954802 L67.7966102,211.954802 L67.7966102,202.915254 Z M79.0960452,191.615819 L88.1355932,191.615819 L88.1355932,200.655367 L79.0960452,200.655367 L79.0960452,191.615819 Z M79.0960452,180.316384 L88.1355932,180.316384 L88.1355932,189.355932 L79.0960452,189.355932 L79.0960452,180.316384 Z M79.0960452,202.915254 L88.1355932,202.915254 L88.1355932,211.954802 L79.0960452,211.954802 L79.0960452,202.915254 Z M79.0960452,157.717514 L88.1355932,157.717514 L88.1355932,166.757062 L79.0960452,166.757062 L79.0960452,157.717514 Z M90.3954802,191.615819 L99.4350282,191.615819 L99.4350282,200.655367 L90.3954802,200.655367 L90.3954802,191.615819 Z M90.3954802,180.316384 L99.4350282,180.316384 L99.4350282,189.355932 L90.3954802,189.355932 L90.3954802,180.316384 Z M90.3954802,169.016949 L99.4350282,169.016949 L99.4350282,178.056497 L90.3954802,178.056497 L90.3954802,169.016949 Z M90.3954802,141.898305 L99.4350282,141.898305 L99.4350282,150.937853 L90.3954802,150.937853 L90.3954802,141.898305 Z M90.3954802,202.915254 L99.4350282,202.915254 L99.4350282,211.954802 L90.3954802,211.954802 L90.3954802,202.915254 Z M101.694915,191.615819 L110.734463,191.615819 L110.734463,200.655367 L101.694915,200.655367 L101.694915,191.615819 Z M101.694915,180.316384 L110.734463,180.316384 L110.734463,189.355932 L101.694915,189.355932 L101.694915,180.316384 Z M101.694915,169.016949 L110.734463,169.016949 L110.734463,178.056497 L101.694915,178.056497 L101.694915,169.016949 Z M101.694915,157.717514 L110.734463,157.717514 L110.734463,166.757062 L101.694915,166.757062 L101.694915,157.717514 Z M101.694915,202.915254 L110.734463,202.915254 L110.734463,211.954802 L101.694915,211.954802 L101.694915,202.915254 Z M112.99435,191.615819 L122.033898,191.615819 L122.033898,200.655367 L112.99435,200.655367 L112.99435,191.615819 Z M112.99435,180.316384 L122.033898,180.316384 L122.033898,189.355932 L112.99435,189.355932 L112.99435,180.316384 Z M112.99435,169.016949 L122.033898,169.016949 L122.033898,178.056497 L112.99435,178.056497 L112.99435,169.016949 Z M112.99435,157.717514 L122.033898,157.717514 L122.033898,166.757062 L112.99435,166.757062 L112.99435,157.717514 Z M112.99435,146.418079 L122.033898,146.418079 L122.033898,155.457627 L112.99435,155.457627 L112.99435,146.418079 Z M112.99435,202.915254 L122.033898,202.915254 L122.033898,211.954802 L112.99435,211.954802 L112.99435,202.915254 Z M124.293785,191.615819 L133.333333,191.615819 L133.333333,200.655367 L124.293785,200.655367 L124.293785,191.615819 Z M124.293785,180.316384 L133.333333,180.316384 L133.333333,189.355932 L124.293785,189.355932 L124.293785,180.316384 Z M124.293785,169.016949 L133.333333,169.016949 L133.333333,178.056497 L124.293785,178.056497 L124.293785,169.016949 Z M124.293785,157.717514 L133.333333,157.717514 L133.333333,166.757062 L124.293785,166.757062 L124.293785,157.717514 Z M124.293785,146.418079 L133.333333,146.418079 L133.333333,155.457627 L124.293785,155.457627 L124.293785,146.418079 Z M124.293785,135.118644 L133.333333,135.118644 L133.333333,144.158192 L124.293785,144.158192 L124.293785,135.118644 Z M124.293785,202.915254 L133.333333,202.915254 L133.333333,211.954802 L124.293785,211.954802 L124.293785,202.915254 Z M135.59322,202.915254 L144.632768,202.915254 L144.632768,211.954802 L135.59322,211.954802 L135.59322,202.915254 Z M146.892655,202.915254 L155.932203,202.915254 L155.932203,211.954802 L146.892655,211.954802 L146.892655,202.915254 Z M146.892655,191.615819 L155.932203,191.615819 L155.932203,200.655367 L146.892655,200.655367 L146.892655,191.615819 Z M158.19209,202.915254 L167.231638,202.915254 L167.231638,211.954802 L158.19209,211.954802 L158.19209,202.915254 Z M158.19209,191.615819 L167.231638,191.615819 L167.231638,200.655367 L158.19209,200.655367 L158.19209,191.615819 Z M158.19209,180.316384 L167.231638,180.316384 L167.231638,189.355932 L158.19209,189.355932 L158.19209,180.316384 Z M158.19209,157.717514 L167.231638,157.717514 L167.231638,166.757062 L158.19209,166.757062 L158.19209,157.717514 Z M169.491525,202.915254 L178.531073,202.915254 L178.531073,211.954802 L169.491525,211.954802 L169.491525,202.915254 Z M169.491525,191.615819 L178.531073,191.615819 L178.531073,200.655367 L169.491525,200.655367 L169.491525,191.615819 Z M169.491525,180.316384 L178.531073,180.316384 L178.531073,189.355932 L169.491525,189.355932 L169.491525,180.316384 Z M169.491525,169.016949 L178.531073,169.016949 L178.531073,178.056497 L169.491525,178.056497 L169.491525,169.016949 Z M169.491525,157.717514 L178.531073,157.717514 L178.531073,166.757062 L169.491525,166.757062 L169.491525,157.717514 Z M169.491525,146.418079 L178.531073,146.418079 L178.531073,155.457627 L169.491525,155.457627 L169.491525,146.418079 Z M169.491525,135.118644 L178.531073,135.118644 L178.531073,144.158192 L169.491525,144.158192 L169.491525,135.118644 Z M169.491525,112.519774 L178.531073,112.519774 L178.531073,121.559322 L169.491525,121.559322 L169.491525,112.519774 Z M180.79096,202.915254 L189.830508,202.915254 L189.830508,211.954802 L180.79096,211.954802 L180.79096,202.915254 Z M180.79096,191.615819 L189.830508,191.615819 L189.830508,200.655367 L180.79096,200.655367 L180.79096,191.615819 Z M180.79096,180.316384 L189.830508,180.316384 L189.830508,189.355932 L180.79096,189.355932 L180.79096,180.316384 Z M180.79096,169.016949 L189.830508,169.016949 L189.830508,178.056497 L180.79096,178.056497 L180.79096,169.016949 Z M180.79096,157.717514 L189.830508,157.717514 L189.830508,166.757062 L180.79096,166.757062 L180.79096,157.717514 Z M192.090395,202.915254 L201.129944,202.915254 L201.129944,211.954802 L192.090395,211.954802 L192.090395,202.915254 Z M192.090395,191.615819 L201.129944,191.615819 L201.129944,200.655367 L192.090395,200.655367 L192.090395,191.615819 Z M192.090395,180.316384 L201.129944,180.316384 L201.129944,189.355932 L192.090395,189.355932 L192.090395,180.316384 Z M192.090395,169.016949 L201.129944,169.016949 L201.129944,178.056497 L192.090395,178.056497 L192.090395,169.016949 Z M203.389831,202.915254 L212.429379,202.915254 L212.429379,211.954802 L203.389831,211.954802 L203.389831,202.915254 Z M203.389831,191.615819 L212.429379,191.615819 L212.429379,200.655367 L203.389831,200.655367 L203.389831,191.615819 Z M203.389831,180.316384 L212.429379,180.316384 L212.429379,189.355932 L203.389831,189.355932 L203.389831,180.316384 Z M214.689266,202.915254 L223.728814,202.915254 L223.728814,211.954802 L214.689266,211.954802 L214.689266,202.915254 Z M214.689266,191.615819 L223.728814,191.615819 L223.728814,200.655367 L214.689266,200.655367 L214.689266,191.615819 Z M214.689266,180.316384 L223.728814,180.316384 L223.728814,189.355932 L214.689266,189.355932 L214.689266,180.316384 Z M214.689266,169.016949 L223.728814,169.016949 L223.728814,178.056497 L214.689266,178.056497 L214.689266,169.016949 Z M225.988701,202.915254 L235.028249,202.915254 L235.028249,211.954802 L225.988701,211.954802 L225.988701,202.915254 Z M225.988701,191.615819 L235.028249,191.615819 L235.028249,200.655367 L225.988701,200.655367 L225.988701,191.615819 Z M225.988701,180.316384 L235.028249,180.316384 L235.028249,189.355932 L225.988701,189.355932 L225.988701,180.316384 Z M237.288136,202.915254 L246.327684,202.915254 L246.327684,211.954802 L237.288136,211.954802 L237.288136,202.915254 Z M237.288136,191.615819 L246.327684,191.615819 L246.327684,200.655367 L237.288136,200.655367 L237.288136,191.615819 Z M237.288136,180.316384 L246.327684,180.316384 L246.327684,189.355932 L237.288136,189.355932 L237.288136,180.316384 Z M237.288136,169.016949 L246.327684,169.016949 L246.327684,178.056497 L237.288136,178.056497 L237.288136,169.016949 Z M248.587571,202.915254 L257.627119,202.915254 L257.627119,211.954802 L248.587571,211.954802 L248.587571,202.915254 Z M248.587571,191.615819 L257.627119,191.615819 L257.627119,200.655367 L248.587571,200.655367 L248.587571,191.615819 Z M248.587571,180.316384 L257.627119,180.316384 L257.627119,189.355932 L248.587571,189.355932 L248.587571,180.316384 Z M248.587571,169.016949 L257.627119,169.016949 L257.627119,178.056497 L248.587571,178.056497 L248.587571,169.016949 Z M248.587571,157.717514 L257.627119,157.717514 L257.627119,166.757062 L248.587571,166.757062 L248.587571,157.717514 Z M248.587571,146.418079 L257.627119,146.418079 L257.627119,155.457627 L248.587571,155.457627 L248.587571,146.418079 Z M259.887006,202.915254 L268.926554,202.915254 L268.926554,211.954802 L259.887006,211.954802 L259.887006,202.915254 Z M259.887006,191.615819 L268.926554,191.615819 L268.926554,200.655367 L259.887006,200.655367 L259.887006,191.615819 Z M259.887006,157.717514 L268.926554,157.717514 L268.926554,166.757062 L259.887006,166.757062 L259.887006,157.717514 Z M271.186441,202.915254 L280.225989,202.915254 L280.225989,211.954802 L271.186441,211.954802 L271.186441,202.915254 Z M282.485876,202.915254 L291.525424,202.915254 L291.525424,211.954802 L282.485876,211.954802 L282.485876,202.915254 Z M293.785311,202.915254 L302.824859,202.915254 L302.824859,211.954802 L293.785311,211.954802 L293.785311,202.915254 Z M293.785311,191.615819 L302.824859,191.615819 L302.824859,200.655367 L293.785311,200.655367 L293.785311,191.615819 Z M293.785311,180.316384 L302.824859,180.316384 L302.824859,189.355932 L293.785311,189.355932 L293.785311,180.316384 Z M293.785311,157.717514 L302.824859,157.717514 L302.824859,166.757062 L293.785311,166.757062 L293.785311,157.717514 Z M305.084746,202.915254 L314.124294,202.915254 L314.124294,211.954802 L305.084746,211.954802 L305.084746,202.915254 Z M305.084746,191.615819 L314.124294,191.615819 L314.124294,200.655367 L305.084746,200.655367 L305.084746,191.615819 Z M305.084746,169.016949 L314.124294,169.016949 L314.124294,178.056497 L305.084746,178.056497 L305.084746,169.016949 Z M305.084746,157.717514 L314.124294,157.717514 L314.124294,166.757062 L305.084746,166.757062 L305.084746,157.717514 Z M316.384181,202.915254 L325.423729,202.915254 L325.423729,211.954802 L316.384181,211.954802 L316.384181,202.915254 Z M316.384181,191.615819 L325.423729,191.615819 L325.423729,200.655367 L316.384181,200.655367 L316.384181,191.615819 Z M316.384181,180.316384 L325.423729,180.316384 L325.423729,189.355932 L316.384181,189.355932 L316.384181,180.316384 Z M316.384181,169.016949 L325.423729,169.016949 L325.423729,178.056497 L316.384181,178.056497 L316.384181,169.016949 Z M316.384181,157.717514 L325.423729,157.717514 L325.423729,166.757062 L316.384181,166.757062 L316.384181,157.717514 Z M316.384181,135.118644 L325.423729,135.118644 L325.423729,144.158192 L316.384181,144.158192 L316.384181,135.118644 Z M327.683616,202.915254 L336.723164,202.915254 L336.723164,211.954802 L327.683616,211.954802 L327.683616,202.915254 Z M327.683616,191.615819 L336.723164,191.615819 L336.723164,200.655367 L327.683616,200.655367 L327.683616,191.615819 Z M327.683616,180.316384 L336.723164,180.316384 L336.723164,189.355932 L327.683616,189.355932 L327.683616,180.316384 Z M327.683616,169.016949 L336.723164,169.016949 L336.723164,178.056497 L327.683616,178.056497 L327.683616,169.016949 Z M327.683616,146.418079 L336.723164,146.418079 L336.723164,155.457627 L327.683616,155.457627 L327.683616,146.418079 Z M338.983051,202.915254 L348.022599,202.915254 L348.022599,211.954802 L338.983051,211.954802 L338.983051,202.915254 Z M338.983051,191.615819 L348.022599,191.615819 L348.022599,200.655367 L338.983051,200.655367 L338.983051,191.615819 Z M338.983051,180.316384 L348.022599,180.316384 L348.022599,189.355932 L338.983051,189.355932 L338.983051,180.316384 Z M350.282486,202.915254 L359.322034,202.915254 L359.322034,211.954802 L350.282486,211.954802 L350.282486,202.915254 Z M350.282486,191.615819 L359.322034,191.615819 L359.322034,200.655367 L350.282486,200.655367 L350.282486,191.615819 Z M350.282486,180.316384 L359.322034,180.316384 L359.322034,189.355932 L350.282486,189.355932 L350.282486,180.316384 Z M350.282486,169.016949 L359.322034,169.016949 L359.322034,178.056497 L350.282486,178.056497 L350.282486,169.016949 Z M361.581921,202.915254 L370.621469,202.915254 L370.621469,211.954802 L361.581921,211.954802 L361.581921,202.915254 Z M361.581921,191.615819 L370.621469,191.615819 L370.621469,200.655367 L361.581921,200.655367 L361.581921,191.615819 Z M361.581921,180.316384 L370.621469,180.316384 L370.621469,189.355932 L361.581921,189.355932 L361.581921,180.316384 Z M361.581921,169.016949 L370.621469,169.016949 L370.621469,178.056497 L361.581921,178.056497 L361.581921,169.016949 Z M361.581921,157.717514 L370.621469,157.717514 L370.621469,166.757062 L361.581921,166.757062 L361.581921,157.717514 Z M372.881356,202.915254 L381.920904,202.915254 L381.920904,211.954802 L372.881356,211.954802 L372.881356,202.915254 Z M372.881356,191.615819 L381.920904,191.615819 L381.920904,200.655367 L372.881356,200.655367 L372.881356,191.615819 Z M372.881356,180.316384 L381.920904,180.316384 L381.920904,189.355932 L372.881356,189.355932 L372.881356,180.316384 Z M372.881356,157.717514 L381.920904,157.717514 L381.920904,166.757062 L372.881356,166.757062 L372.881356,157.717514 Z M372.881356,146.418079 L381.920904,146.418079 L381.920904,155.457627 L372.881356,155.457627 L372.881356,146.418079 Z M384.180791,202.915254 L393.220339,202.915254 L393.220339,211.954802 L384.180791,211.954802 L384.180791,202.915254 Z M384.180791,191.615819 L393.220339,191.615819 L393.220339,200.655367 L384.180791,200.655367 L384.180791,191.615819 Z M384.180791,180.316384 L393.220339,180.316384 L393.220339,189.355932 L384.180791,189.355932 L384.180791,180.316384 Z M384.180791,169.016949 L393.220339,169.016949 L393.220339,178.056497 L384.180791,178.056497 L384.180791,169.016949 Z M384.180791,157.717514 L393.220339,157.717514 L393.220339,166.757062 L384.180791,166.757062 L384.180791,157.717514 Z M384.180791,146.418079 L393.220339,146.418079 L393.220339,155.457627 L384.180791,155.457627 L384.180791,146.418079 Z M395.480226,202.915254 L404.519774,202.915254 L404.519774,211.954802 L395.480226,211.954802 L395.480226,202.915254 Z M418.079096,202.915254 L427.118644,202.915254 L427.118644,211.954802 L418.079096,211.954802 L418.079096,202.915254 Z M429.378531,202.915254 L438.418079,202.915254 L438.418079,211.954802 L429.378531,211.954802 L429.378531,202.915254 Z M429.378531,180.316384 L438.418079,180.316384 L438.418079,189.355932 L429.378531,189.355932 L429.378531,180.316384 Z M429.378531,157.717514 L438.418079,157.717514 L438.418079,166.757062 L429.378531,166.757062 L429.378531,157.717514 Z M406.779661,202.915254 L415.819209,202.915254 L415.819209,211.954802 L406.779661,211.954802 L406.779661,202.915254 Z M406.779661,191.615819 L415.819209,191.615819 L415.819209,200.655367 L406.779661,200.655367 L406.779661,191.615819 Z M440.677966,202.915254 L449.717514,202.915254 L449.717514,211.954802 L440.677966,211.954802 L440.677966,202.915254 Z M440.677966,191.615819 L449.717514,191.615819 L449.717514,200.655367 L440.677966,200.655367 L440.677966,191.615819 Z M451.977401,202.915254 L461.016949,202.915254 L461.016949,211.954802 L451.977401,211.954802 L451.977401,202.915254 Z M451.977401,191.615819 L461.016949,191.615819 L461.016949,200.655367 L451.977401,200.655367 L451.977401,191.615819 Z M451.977401,180.316384 L461.016949,180.316384 L461.016949,189.355932 L451.977401,189.355932 L451.977401,180.316384 Z M463.276836,202.915254 L472.316384,202.915254 L472.316384,211.954802 L463.276836,211.954802 L463.276836,202.915254 Z M474.576271,202.915254 L483.615819,202.915254 L483.615819,211.954802 L474.576271,211.954802 L474.576271,202.915254 Z M463.276836,191.615819 L472.316384,191.615819 L472.316384,200.655367 L463.276836,200.655367 L463.276836,191.615819 Z M463.276836,180.316384 L472.316384,180.316384 L472.316384,189.355932 L463.276836,189.355932 L463.276836,180.316384 Z M463.276836,169.016949 L472.316384,169.016949 L472.316384,178.056497 L463.276836,178.056497 L463.276836,169.016949 Z M463.276836,157.717514 L472.316384,157.717514 L472.316384,166.757062 L463.276836,166.757062 L463.276836,157.717514 Z M463.276836,135.118644 L472.316384,135.118644 L472.316384,144.158192 L463.276836,144.158192 L463.276836,135.118644 Z M485.875706,202.915254 L494.915254,202.915254 L494.915254,211.954802 L485.875706,211.954802 L485.875706,202.915254 Z M485.875706,191.615819 L494.915254,191.615819 L494.915254,200.655367 L485.875706,200.655367 L485.875706,191.615819 Z M485.875706,180.316384 L494.915254,180.316384 L494.915254,189.355932 L485.875706,189.355932 L485.875706,180.316384 Z M485.875706,169.016949 L494.915254,169.016949 L494.915254,178.056497 L485.875706,178.056497 L485.875706,169.016949 Z M485.875706,157.717514 L494.915254,157.717514 L494.915254,166.757062 L485.875706,166.757062 L485.875706,157.717514 Z M485.875706,146.418079 L494.915254,146.418079 L494.915254,155.457627 L485.875706,155.457627 L485.875706,146.418079 Z M485.875706,135.118644 L494.915254,135.118644 L494.915254,144.158192 L485.875706,144.158192 L485.875706,135.118644 Z M519.774011,202.915254 L528.813559,202.915254 L528.813559,211.954802 L519.774011,211.954802 L519.774011,202.915254 Z M519.774011,191.615819 L528.813559,191.615819 L528.813559,200.655367 L519.774011,200.655367 L519.774011,191.615819 Z M519.774011,180.316384 L528.813559,180.316384 L528.813559,189.355932 L519.774011,189.355932 L519.774011,180.316384 Z M519.774011,169.016949 L528.813559,169.016949 L528.813559,178.056497 L519.774011,178.056497 L519.774011,169.016949 Z M519.774011,157.717514 L528.813559,157.717514 L528.813559,166.757062 L519.774011,166.757062 L519.774011,157.717514 Z M519.774011,146.418079 L528.813559,146.418079 L528.813559,155.457627 L519.774011,155.457627 L519.774011,146.418079 Z M485.875706,123.819209 L494.915254,123.819209 L494.915254,132.858757 L485.875706,132.858757 L485.875706,123.819209 Z M485.875706,112.519774 L494.915254,112.519774 L494.915254,121.559322 L485.875706,121.559322 L485.875706,112.519774 Z M508.474576,202.915254 L517.514124,202.915254 L517.514124,211.954802 L508.474576,211.954802 L508.474576,202.915254 Z M497.175141,202.915254 L506.214689,202.915254 L506.214689,211.954802 L497.175141,211.954802 L497.175141,202.915254 Z M497.175141,191.615819 L506.214689,191.615819 L506.214689,200.655367 L497.175141,200.655367 L497.175141,191.615819 Z M531.073446,202.915254 L540.112994,202.915254 L540.112994,211.954802 L531.073446,211.954802 L531.073446,202.915254 Z M531.073446,191.615819 L540.112994,191.615819 L540.112994,200.655367 L531.073446,200.655367 L531.073446,191.615819 Z M531.073446,180.316384 L540.112994,180.316384 L540.112994,189.355932 L531.073446,189.355932 L531.073446,180.316384 Z M531.073446,169.016949 L540.112994,169.016949 L540.112994,178.056497 L531.073446,178.056497 L531.073446,169.016949 Z M531.073446,157.717514 L540.112994,157.717514 L540.112994,166.757062 L531.073446,166.757062 L531.073446,157.717514 Z M542.372881,202.915254 L551.412429,202.915254 L551.412429,211.954802 L542.372881,211.954802 L542.372881,202.915254 Z M542.372881,191.615819 L551.412429,191.615819 L551.412429,200.655367 L542.372881,200.655367 L542.372881,191.615819 Z M542.372881,180.316384 L551.412429,180.316384 L551.412429,189.355932 L542.372881,189.355932 L542.372881,180.316384 Z M542.372881,169.016949 L551.412429,169.016949 L551.412429,178.056497 L542.372881,178.056497 L542.372881,169.016949 Z M553.672316,202.915254 L562.711864,202.915254 L562.711864,211.954802 L553.672316,211.954802 L553.672316,202.915254 Z M553.672316,191.615819 L562.711864,191.615819 L562.711864,200.655367 L553.672316,200.655367 L553.672316,191.615819 Z M553.672316,180.316384 L562.711864,180.316384 L562.711864,189.355932 L553.672316,189.355932 L553.672316,180.316384 Z M564.971751,202.915254 L574.011299,202.915254 L574.011299,211.954802 L564.971751,211.954802 L564.971751,202.915254 Z M564.971751,191.615819 L574.011299,191.615819 L574.011299,200.655367 L564.971751,200.655367 L564.971751,191.615819 Z M564.971751,180.316384 L574.011299,180.316384 L574.011299,189.355932 L564.971751,189.355932 L564.971751,180.316384 Z M564.971751,169.016949 L574.011299,169.016949 L574.011299,178.056497 L564.971751,178.056497 L564.971751,169.016949 Z M564.971751,157.717514 L574.011299,157.717514 L574.011299,166.757062 L564.971751,166.757062 L564.971751,157.717514 Z M564.971751,146.418079 L574.011299,146.418079 L574.011299,155.457627 L564.971751,155.457627 L564.971751,146.418079 Z M576.271186,202.915254 L585.310734,202.915254 L585.310734,211.954802 L576.271186,211.954802 L576.271186,202.915254 Z M576.271186,191.615819 L585.310734,191.615819 L585.310734,200.655367 L576.271186,200.655367 L576.271186,191.615819 Z M576.271186,180.316384 L585.310734,180.316384 L585.310734,189.355932 L576.271186,189.355932 L576.271186,180.316384 Z M576.271186,169.016949 L585.310734,169.016949 L585.310734,178.056497 L576.271186,178.056497 L576.271186,169.016949 Z M576.271186,157.717514 L585.310734,157.717514 L585.310734,166.757062 L576.271186,166.757062 L576.271186,157.717514 Z M576.271186,146.418079 L585.310734,146.418079 L585.310734,155.457627 L576.271186,155.457627 L576.271186,146.418079 Z M587.570621,202.915254 L596.610169,202.915254 L596.610169,211.954802 L587.570621,211.954802 L587.570621,202.915254 Z M587.570621,191.615819 L596.610169,191.615819 L596.610169,200.655367 L587.570621,200.655367 L587.570621,191.615819 Z M587.570621,180.316384 L596.610169,180.316384 L596.610169,189.355932 L587.570621,189.355932 L587.570621,180.316384 Z M587.570621,169.016949 L596.610169,169.016949 L596.610169,178.056497 L587.570621,178.056497 L587.570621,169.016949 Z M587.570621,157.717514 L596.610169,157.717514 L596.610169,166.757062 L587.570621,166.757062 L587.570621,157.717514 Z M598.870056,202.915254 L607.909605,202.915254 L607.909605,211.954802 L598.870056,211.954802 L598.870056,202.915254 Z M610.169492,202.915254 L619.20904,202.915254 L619.20904,211.954802 L610.169492,211.954802 L610.169492,202.915254 Z M621.468927,202.915254 L630.508475,202.915254 L630.508475,211.954802 L621.468927,211.954802 L621.468927,202.915254 Z M598.870056,191.615819 L607.909605,191.615819 L607.909605,200.655367 L598.870056,200.655367 L598.870056,191.615819 Z M598.870056,180.316384 L607.909605,180.316384 L607.909605,189.355932 L598.870056,189.355932 L598.870056,180.316384 Z M598.870056,157.717514 L607.909605,157.717514 L607.909605,166.757062 L598.870056,166.757062 L598.870056,157.717514 Z M632.768362,202.915254 L641.80791,202.915254 L641.80791,211.954802 L632.768362,211.954802 L632.768362,202.915254 Z M632.768362,191.615819 L641.80791,191.615819 L641.80791,200.655367 L632.768362,200.655367 L632.768362,191.615819 Z M632.768362,180.316384 L641.80791,180.316384 L641.80791,189.355932 L632.768362,189.355932 L632.768362,180.316384 Z M632.768362,169.016949 L641.80791,169.016949 L641.80791,178.056497 L632.768362,178.056497 L632.768362,169.016949 Z M632.768362,157.717514 L641.80791,157.717514 L641.80791,166.757062 L632.768362,166.757062 L632.768362,157.717514 Z M632.768362,146.418079 L641.80791,146.418079 L641.80791,155.457627 L632.768362,155.457627 L632.768362,146.418079 Z M644.067797,202.915254 L653.107345,202.915254 L653.107345,211.954802 L644.067797,211.954802 L644.067797,202.915254 Z M644.067797,191.615819 L653.107345,191.615819 L653.107345,200.655367 L644.067797,200.655367 L644.067797,191.615819 Z M644.067797,180.316384 L653.107345,180.316384 L653.107345,189.355932 L644.067797,189.355932 L644.067797,180.316384 Z M644.067797,169.016949 L653.107345,169.016949 L653.107345,178.056497 L644.067797,178.056497 L644.067797,169.016949 Z M655.367232,202.915254 L664.40678,202.915254 L664.40678,211.954802 L655.367232,211.954802 L655.367232,202.915254 Z M655.367232,191.615819 L664.40678,191.615819 L664.40678,200.655367 L655.367232,200.655367 L655.367232,191.615819 Z M655.367232,180.316384 L664.40678,180.316384 L664.40678,189.355932 L655.367232,189.355932 L655.367232,180.316384 Z M666.666667,202.915254 L675.706215,202.915254 L675.706215,211.954802 L666.666667,211.954802 L666.666667,202.915254 Z M666.666667,191.615819 L675.706215,191.615819 L675.706215,200.655367 L666.666667,200.655367 L666.666667,191.615819 Z M666.666667,180.316384 L675.706215,180.316384 L675.706215,189.355932 L666.666667,189.355932 L666.666667,180.316384 Z M666.666667,169.016949 L675.706215,169.016949 L675.706215,178.056497 L666.666667,178.056497 L666.666667,169.016949 Z M677.966102,202.915254 L687.00565,202.915254 L687.00565,211.954802 L677.966102,211.954802 L677.966102,202.915254 Z M677.966102,191.615819 L687.00565,191.615819 L687.00565,200.655367 L677.966102,200.655367 L677.966102,191.615819 Z M677.966102,180.316384 L687.00565,180.316384 L687.00565,189.355932 L677.966102,189.355932 L677.966102,180.316384 Z M689.265537,202.915254 L698.305085,202.915254 L698.305085,211.954802 L689.265537,211.954802 L689.265537,202.915254 Z M689.265537,191.615819 L698.305085,191.615819 L698.305085,200.655367 L689.265537,200.655367 L689.265537,191.615819 Z M689.265537,180.316384 L698.305085,180.316384 L698.305085,189.355932 L689.265537,189.355932 L689.265537,180.316384 Z M689.265537,169.016949 L698.305085,169.016949 L698.305085,178.056497 L689.265537,178.056497 L689.265537,169.016949 Z M700.564972,202.915254 L709.60452,202.915254 L709.60452,211.954802 L700.564972,211.954802 L700.564972,202.915254 Z M700.564972,191.615819 L709.60452,191.615819 L709.60452,200.655367 L700.564972,200.655367 L700.564972,191.615819 Z M700.564972,180.316384 L709.60452,180.316384 L709.60452,189.355932 L700.564972,189.355932 L700.564972,180.316384 Z M700.564972,169.016949 L709.60452,169.016949 L709.60452,178.056497 L700.564972,178.056497 L700.564972,169.016949 Z M700.564972,157.717514 L709.60452,157.717514 L709.60452,166.757062 L700.564972,166.757062 L700.564972,157.717514 Z M711.864407,202.915254 L720.903955,202.915254 L720.903955,211.954802 L711.864407,211.954802 L711.864407,202.915254 Z M711.864407,191.615819 L720.903955,191.615819 L720.903955,200.655367 L711.864407,200.655367 L711.864407,191.615819 Z M711.864407,180.316384 L720.903955,180.316384 L720.903955,189.355932 L711.864407,189.355932 L711.864407,180.316384 Z M711.864407,169.016949 L720.903955,169.016949 L720.903955,178.056497 L711.864407,178.056497 L711.864407,169.016949 Z M711.864407,157.717514 L720.903955,157.717514 L720.903955,166.757062 L711.864407,166.757062 L711.864407,157.717514 Z M711.864407,146.418079 L720.903955,146.418079 L720.903955,155.457627 L711.864407,155.457627 L711.864407,146.418079 Z M711.864407,135.118644 L720.903955,135.118644 L720.903955,144.158192 L711.864407,144.158192 L711.864407,135.118644 Z M711.864407,112.519774 L720.903955,112.519774 L720.903955,121.559322 L711.864407,121.559322 L711.864407,112.519774 Z M723.163842,202.915254 L732.20339,202.915254 L732.20339,211.954802 L723.163842,211.954802 L723.163842,202.915254 Z M723.163842,191.615819 L732.20339,191.615819 L732.20339,200.655367 L723.163842,200.655367 L723.163842,191.615819 Z M734.463277,202.915254 L743.502825,202.915254 L743.502825,211.954802 L734.463277,211.954802 L734.463277,202.915254 Z M745.762712,202.915254 L754.80226,202.915254 L754.80226,211.954802 L745.762712,211.954802 L745.762712,202.915254 Z M734.463277,191.615819 L743.502825,191.615819 L743.502825,200.655367 L734.463277,200.655367 L734.463277,191.615819 Z M723.163842,180.316384 L732.20339,180.316384 L732.20339,189.355932 L723.163842,189.355932 L723.163842,180.316384 Z M723.163842,157.717514 L732.20339,157.717514 L732.20339,166.757062 L723.163842,166.757062 L723.163842,157.717514 Z M757.062147,202.915254 L766.101695,202.915254 L766.101695,211.954802 L757.062147,211.954802 L757.062147,202.915254 Z M757.062147,191.615819 L766.101695,191.615819 L766.101695,200.655367 L757.062147,200.655367 L757.062147,191.615819 Z M757.062147,180.316384 L766.101695,180.316384 L766.101695,189.355932 L757.062147,189.355932 L757.062147,180.316384 Z M768.361582,202.915254 L777.40113,202.915254 L777.40113,211.954802 L768.361582,211.954802 L768.361582,202.915254 Z M768.361582,191.615819 L777.40113,191.615819 L777.40113,200.655367 L768.361582,200.655367 L768.361582,191.615819 Z M768.361582,180.316384 L777.40113,180.316384 L777.40113,189.355932 L768.361582,189.355932 L768.361582,180.316384 Z M768.361582,169.016949 L777.40113,169.016949 L777.40113,178.056497 L768.361582,178.056497 L768.361582,169.016949 Z M768.361582,157.717514 L777.40113,157.717514 L777.40113,166.757062 L768.361582,166.757062 L768.361582,157.717514 Z M768.361582,146.418079 L777.40113,146.418079 L777.40113,155.457627 L768.361582,155.457627 L768.361582,146.418079 Z M779.661017,202.915254 L788.700565,202.915254 L788.700565,211.954802 L779.661017,211.954802 L779.661017,202.915254 Z M779.661017,180.316384 L788.700565,180.316384 L788.700565,189.355932 L779.661017,189.355932 L779.661017,180.316384 Z M790.960452,202.915254 L800,202.915254 L800,211.954802 L790.960452,211.954802 L790.960452,202.915254 Z M790.960452,191.615819 L800,191.615819 L800,200.655367 L790.960452,200.655367 L790.960452,191.615819 Z M790.960452,180.316384 L800,180.316384 L800,189.355932 L790.960452,189.355932 L790.960452,180.316384 Z M790.960452,169.016949 L800,169.016949 L800,178.056497 L790.960452,178.056497 L790.960452,169.016949 Z" id="Combined-Shape-Copy-2" opacity="0.05" transform="translate(400.000000, 159.977401) scale(1, -1) translate(-400.000000, -159.977401) "></path>
                    </g>
                    <g id="Group-2" transform="translate(757.000000, 0.000000)">
                        <g id="music_icon" transform="translate(332.000000, 157.000000)">
                            <mask id="mask-3" fill="white">
                                <use xlink:href="#path-2"></use>
                            </mask>
                            <g id="Mask">
                                <use fill="black" fill-opacity="1" filter="url(#filter-4)" xlink:href="#path-2"></use>
                                <use fill="url(#linearGradient-1)" fill-rule="evenodd" xlink:href="#path-2"></use>
                            </g>
                            <g id="Group" transform="translate(35.000000, 26.000000)">
                                <g id="Rectangle-8-Copy" transform="translate(4.847328, 0.000000)" fill="#FFFFFF">
                                    <g id="Mask">
                                        <path d="M0.769115403,80.8852387 C-0.15152396,73.3665966 0.35723595,64.8106362 0.35723595,55.8393728 C0.35723595,26.596966 21.1020411,0.361374098 51.2633588,0.361374099 C81.4246764,0.3613741 102.169482,26.596966 102.169482,55.8393728 C102.169482,64.9156414 102.690221,73.3502152 101.724684,80.7006782 C100.756862,75.3829127 98.2576476,70.5997988 94.7005515,66.8242354 C94.6848383,63.3202067 94.5832559,59.6449031 94.5832559,55.8408307 C94.5832559,30.242356 82.7348961,10.0739801 51.2633588,9.49069201 C19.7918215,8.90740397 7.94346167,30.242356 7.94346167,55.8408307 C7.94346167,59.6051916 7.84398904,63.2860231 7.82668601,66.8233583 C4.22800824,70.642967 1.71226642,75.4936619 0.769115403,80.8852387 Z"></path>
                                    </g>
                                </g>
                                <g id="Rectangle-4" transform="translate(29.267176, 72.022901) scale(-1, 1) translate(-29.267176, -72.022901) translate(19.099237, 42.366412)">
                                    <mask id="mask-6" fill="white">
                                        <use xlink:href="#path-5"></use>
                                    </mask>
                                    <use id="Mask" fill="#204100" xlink:href="#path-5"></use>
                                    <rect fill="#7ED321" mask="url(#mask-6)" x="9.98427149" y="-1.44330455" width="14.9764072" height="62.783748"></rect>
                                </g>
                                <g id="Rectangle-4-Copy" transform="translate(72.633588, 42.366412)">
                                    <mask id="mask-8" fill="white">
                                        <use xlink:href="#path-7"></use>
                                    </mask>
                                    <use id="Mask" fill="#204100" xlink:href="#path-7"></use>
                                    <rect id="Rectangle-4" fill="#7ED321" mask="url(#mask-8)" x="9.98427149" y="-1.44330455" width="14.9764072" height="62.783748"></rect>
                                </g>
                                <path d="M11.6119784,63.914902 C11.0650633,60.9053837 10.778626,57.7970574 10.778626,54.6175452 C10.778626,27.7288732 31.2641619,5.93129771 56.5343511,5.93129771 C81.8045404,5.93129771 102.290076,27.7288732 102.290076,54.6175452 C102.290076,58.1363742 101.93924,61.5680127 101.272756,64.8750178 C99.8475392,63.2902006 98.2133645,61.8970979 96.4136016,60.7390327 C96.6822593,58.7397172 96.8212646,56.6959041 96.8212646,54.6175452 C96.8212646,30.9426587 78.784199,11.7503711 56.5343511,11.7503711 C34.2845032,11.7503711 16.2474377,30.9426587 16.2474377,54.6175452 C16.2474377,56.4816156 16.3592565,58.3178966 16.5761462,60.1192082 C14.7568979,61.1653673 13.0886934,62.4441303 11.6119784,63.914902 Z" id="Oval-3-Copy" fill="#E0E0E0"></path>
                                <path d="M20.0992366,89.816794 C11.158806,89.5292348 4,82.2417352 4,73.2938932 C4,64.3460512 11.158806,57.0585515 20.0992366,56.7709924 L20.0992366,89.816794 Z" id="Oval-1" fill="#F8E71C"></path>
                                <path d="M92.1221374,56.7709924 C101.062568,57.0585515 108.221374,64.3460512 108.221374,73.2938931 C108.221374,82.2417351 101.062568,89.5292348 92.1221374,89.8167939 L92.1221374,56.7709924 Z" id="Oval-1-Copy" fill="#F8E71C"></path>
                                <path d="M31.8404693,89.8167939 C31.8404693,89.8167939 53.4011408,91.8193089 51.9277875,106.61242 C51.2649708,113.267388 48.6018565,121.645274 40.8404693,124 C23.8404693,129.157627 0.840469261,110 0.840469261,110" id="Path-1" stroke="#FFFFFF" stroke-width="2" opacity="0.35088196" transform="translate(26.420235, 107.349174) scale(-1, 1) translate(-26.420235, -107.349174) "></path>
                                <rect id="Rectangle" fill="#FFFFFF" opacity="0.351329985" transform="translate(55.991211, 107.875000) rotate(-36.000000) translate(-55.991211, -107.875000) " x="49.9912109" y="103.875" width="12" height="8" rx="4"></rect>
                            </g>
                            <text id="" font-family="PingFangSC-Semibold, PingFang SC" font-size="22" font-weight="500" letter-spacing="-0.55" fill="#FFFFFF">
                                <tspan x="71.05" y="170"></tspan>
                            </text>
                        </g>
                        <g id="video" transform="translate(145.000000, 67.000000)">
                            <mask id="mask-11" fill="white">
                                <use xlink:href="#path-10"></use>
                            </mask>
                            <g id="Mask">
                                <use fill="black" fill-opacity="1" filter="url(#filter-12)" xlink:href="#path-10"></use>
                                <use fill="url(#linearGradient-9)" fill-rule="evenodd" xlink:href="#path-10"></use>
                            </g>
                            <text id="" font-family="PingFangSC-Semibold, PingFang SC" font-size="20" font-weight="500" letter-spacing="-0.5" fill="#FFFFFF">
                                <tspan x="60" y="112"></tspan>
                            </text>
                            <g transform="translate(55.000000, 30.000000)">
                                <g id="Video_Frame" fill="#FFFCF2">
                                    <path d="M46.875,0 L3.125,0 C1.40625,0 0,1.40625 0,3.125 L0,46.875 C0,48.59375 1.40625,50 3.125,50 L46.875,50 C48.59375,50 50,48.59375 50,46.875 L50,3.125 C50,1.40625 48.59375,0 46.875,0 L46.875,0 Z" id="Shape"></path>
                                </g>
                                <g id="Film" transform="translate(3.125000, 3.125000)" fill="url(#linearGradient-13)">
                                    <path d="M0,6.25 L6.25,6.25 L6.25,0 L0,0 L0,6.25 L0,6.25 Z M0,15.625 L6.25,15.625 L6.25,9.375 L0,9.375 L0,15.625 L0,15.625 Z M0,25 L6.25,25 L6.25,18.75 L0,18.75 L0,25 L0,25 Z M0,34.375 L6.25,34.375 L6.25,28.125 L0,28.125 L0,34.375 L0,34.375 Z M0,43.75 L6.25,43.75 L6.25,37.5 L0,37.5 L0,43.75 L0,43.75 Z M37.5,0 L37.5,6.25 L43.75,6.25 L43.75,0 L37.5,0 L37.5,0 Z M37.5,15.625 L43.75,15.625 L43.75,9.375 L37.5,9.375 L37.5,15.625 L37.5,15.625 Z M37.5,25 L43.75,25 L43.75,18.75 L37.5,18.75 L37.5,25 L37.5,25 Z M37.5,34.375 L43.75,34.375 L43.75,28.125 L37.5,28.125 L37.5,34.375 L37.5,34.375 Z M37.5,43.75 L43.75,43.75 L43.75,37.5 L37.5,37.5 L37.5,43.75 L37.5,43.75 Z M9.375,20.3125 L34.375,20.3125 L34.375,0 L9.375,0 L9.375,20.3125 L9.375,20.3125 Z M9.375,43.75 L34.375,43.75 L34.375,23.4375 L9.375,23.4375 L9.375,43.75 L9.375,43.75 Z" id="Shape"></path>
                                </g>
                            </g>
                        </g>
                        <g id="img" transform="translate(145.000000, 257.000000)">
                            <mask id="mask-16" fill="white">
                                <use xlink:href="#path-15"></use>
                            </mask>
                            <g id="Mask">
                                <use fill="black" fill-opacity="1" filter="url(#filter-17)" xlink:href="#path-15"></use>
                                <use fill="url(#linearGradient-14)" fill-rule="evenodd" xlink:href="#path-15"></use>
                            </g>
                            <text id="" font-family="PingFangSC-Semibold, PingFang SC" font-size="20" font-weight="500" letter-spacing="-0.5000001" fill="#FFFFFF">
                                <tspan x="61.0000001" y="112"></tspan>
                            </text>
                            <g transform="translate(49.000000, 27.000000)">
                                <g id="Photo_Frame" fill="#F3F3F3">
                                    <path d="M59.1952381,12.6952381 L13.5809524,0.442857143 C11.9571429,-5.05151476e-14 10.3333333,0.885714286 10.0380952,2.50952381 L0.885714286,36.7571429 C0.442857143,38.3809524 1.32857143,40.0047619 2.95238095,40.3 L48.5666667,52.552381 C50.1904762,52.9952381 51.8142857,52.1095238 52.1095238,50.4857143 L61.2619048,16.2380952 C61.7047619,14.7619048 60.6714286,13.1380952 59.1952381,12.6952381 L59.1952381,12.6952381 Z" id="Shape"></path>
                                </g>
                                <g id="Photo_Frame_1_" transform="translate(4.428571, 5.904762)" fill="#FFFCF2">
                                    <path d="M50.1904762,0 L2.95238095,0 C1.32857143,0 0,1.32857143 0,2.95238095 L0,38.3809524 C0,40.0047619 1.32857143,41.3333333 2.95238095,41.3333333 L50.1904762,41.3333333 C51.8142857,41.3333333 53.1428571,40.0047619 53.1428571,38.3809524 L53.1428571,2.95238095 C53.1428571,1.32857143 51.8142857,0 50.1904762,0 L50.1904762,0 Z" id="Shape"></path>
                                </g>
                                <g id="Sky" transform="translate(7.380952, 8.857143)" fill="#344E5F">
                                    <rect id="Rectangle-path" x="0" y="0" width="47.2380952" height="35.4285714"></rect>
                                </g>
                                <g id="Grass" transform="translate(7.380952, 28.047619)" fill="#3DBB69">
                                    <path d="M26.5714286,2.95238095 C21.9952381,0.295238095 11.8095238,-2.95238095 0,5.9047619 L0,16.2380952 L47.2380952,16.2380952 L47.2380952,4.42857143 C47.2380952,4.42857143 36.9047619,8.85714286 26.5714286,2.95238095 L26.5714286,2.95238095 Z" id="Shape"></path>
                                </g>
                                <g id="Sun" transform="translate(36.904762, 14.761905)" fill="#EDC03D">
                                    <circle id="Oval" cx="5.9047619" cy="5.9047619" r="5.9047619"></circle>
                                </g>
                            </g>
                        </g>
                        <g id="book" transform="translate(0.000000, 136.000000)">
                            <mask id="mask-20" fill="white">
                                <use xlink:href="#path-19"></use>
                            </mask>
                            <g id="Mask">
                                <use fill="black" fill-opacity="1" filter="url(#filter-21)" xlink:href="#path-19"></use>
                                <use fill="url(#linearGradient-18)" fill-rule="evenodd" xlink:href="#path-19"></use>
                            </g>
                            <text id="" font-family="PingFangSC-Semibold, PingFang SC" font-size="20" font-weight="500" letter-spacing="-0.5000001" fill="#FFFFFF">
                                <tspan x="42.0000001" y="103"></tspan>
                            </text>
                            <g id="icon" transform="translate(44.000000, 30.000000)">
                                <g id="Book" fill="#FFFCF2">
                                    <path d="M31.5714286,0 L2.42857143,0 C1.09285714,0 0,1.09285714 0,2.42857143 L0,36.4285714 C0,37.7642857 1.09285714,38.8571429 2.42857143,38.8571429 L31.5714286,38.8571429 C32.9071429,38.8571429 34,37.7642857 34,36.4285714 L34,2.42857143 C34,1.09285714 32.9071429,0 31.5714286,0 L31.5714286,0 Z" id="Shape"></path>
                                </g>
                                <g id="Details" transform="translate(4.857143, 0.000000)" fill="#2D4B5E">
                                    <path d="M0,38.8571429 L2.42857143,38.8571429 L2.42857143,0 L0,0 L0,38.8571429 L0,38.8571429 Z M17,0 L17,12.1428571 L20.6428571,8.5 L24.2857143,12.1428571 L24.2857143,0 L17,0 L17,0 Z" id="Shape"></path>
                                </g>
                            </g>
                        </g>
                    </g>
                </g>
            </g>
        </g>
    </g>
</svg>