<?xml version="1.0" encoding="UTF-8"?>
<svg width="46px" height="54px" viewBox="0 0 46 54" version="1.1" xmlns="http://www.w3.org/2000/svg" xmlns:xlink="http://www.w3.org/1999/xlink">
    <!-- Generator: Sketch 52.3 (67297) - http://www.bohemiancoding.com/sketch -->
    <title>Group 28</title>
    <desc>Created with Sketch.</desc>
    <defs>
        <path d="M0.763,1.031 L0.763,1.926 C1.486,1.844 2.221,1.8 2.967,1.8 C8.278,1.799 13.085,3.951 16.566,7.432 L17.195,6.803 C13.394,3.003 8.342,0.91 2.967,0.91 C2.225,0.911 1.49,0.952 0.763,1.031" id="path-1"></path>
        <linearGradient x1="50.0000237%" y1="100.000923%" x2="49.9958891%" y2="0.00023765716%" id="linearGradient-3">
            <stop stop-color="#026EB8" offset="0%"></stop>
            <stop stop-color="#2DA7DF" offset="100%"></stop>
        </linearGradient>
        <path d="M2.967,0.563 C2.223,0.563 1.488,0.601 0.763,0.672 L0.763,1.571 C1.487,1.496 2.222,1.458 2.967,1.458 C8.915,1.457 14.309,3.876 18.215,7.782 L18.847,7.149 C14.779,3.082 9.163,0.563 2.97,0.563 C2.969,0.563 2.968,0.563 2.967,0.563" id="path-4"></path>
        <linearGradient x1="50.0009931%" y1="100.007155%" x2="49.9968342%" y2="-0.0114115528%" id="linearGradient-6">
            <stop stop-color="#026EB8" offset="0%"></stop>
            <stop stop-color="#2DA7DF" offset="100%"></stop>
        </linearGradient>
        <path d="M2.967,0.312 C2.223,0.312 1.489,0.348 0.762,0.413 L0.762,1.309 C1.488,1.242 2.223,1.207 2.967,1.206 C9.535,1.206 15.492,3.877 19.806,8.191 L20.438,7.558 C15.963,3.083 9.783,0.312 2.97,0.312 C2.969,0.312 2.968,0.312 2.967,0.312" id="path-7"></path>
        <linearGradient x1="50.00259%" y1="100.005107%" x2="49.9984179%" y2="-0.0125130093%" id="linearGradient-9">
            <stop stop-color="#026EB8" offset="0%"></stop>
            <stop stop-color="#2DA7DF" offset="100%"></stop>
        </linearGradient>
        <path d="M2.967,0.062 C2.226,0.062 1.492,0.095 0.762,0.154 L0.762,1.052 C1.489,0.991 2.223,0.957 2.967,0.957 C7.906,0.956 12.524,2.329 16.461,4.714 C16.455,4.763 16.451,4.812 16.451,4.863 C16.451,5.555 17.012,6.115 17.703,6.115 C17.927,6.115 18.136,6.055 18.318,5.953 C19.414,6.753 20.447,7.634 21.405,8.591 L22.037,7.959 C21.049,6.971 19.997,6.07 18.891,5.258 C18.933,5.134 18.956,5.001 18.956,4.863 C18.955,4.171 18.395,3.611 17.703,3.611 C17.39,3.611 17.104,3.727 16.884,3.918 C12.728,1.405 7.952,0.062 2.972,0.062 L2.967,0.062 Z" id="path-10"></path>
        <linearGradient x1="50.001891%" y1="100.017662%" x2="49.9977137%" y2="-0.0114128268%" id="linearGradient-12">
            <stop stop-color="#026EB8" offset="0%"></stop>
            <stop stop-color="#2DA7DF" offset="100%"></stop>
        </linearGradient>
        <path d="M0.849,6.033 C0.849,11.407 2.942,16.46 6.743,20.26 C10.544,24.059 15.596,26.152 20.971,26.151 C24.582,26.151 28.047,25.204 31.085,23.431 C31.258,23.521 31.454,23.573 31.663,23.573 C32.355,23.573 32.916,23.013 32.915,22.321 C32.915,22.29 32.913,22.259 32.911,22.229 C33.713,21.635 34.478,20.976 35.197,20.257 L34.568,19.628 C33.928,20.268 33.244,20.863 32.518,21.408 C32.294,21.198 31.994,21.069 31.663,21.069 C30.972,21.069 30.411,21.629 30.411,22.322 C30.411,22.47 30.438,22.612 30.486,22.745 C27.681,24.346 24.433,25.262 20.971,25.262 C10.35,25.263 1.739,16.654 1.738,6.033 L1.737,0.087 C1.152,1.988 0.848,3.988 0.849,6.033" id="path-13"></path>
        <linearGradient x1="50.0047424%" y1="100.002183%" x2="49.9968375%" y2="-0.00717196123%" id="linearGradient-15">
            <stop stop-color="#026EB8" offset="0%"></stop>
            <stop stop-color="#2DA7DF" offset="100%"></stop>
        </linearGradient>
        <path d="M0.501,12.033 C0.503,24.422 10.583,34.5 22.971,34.499 C29.166,34.498 34.783,31.978 38.851,27.909 L38.218,27.277 C34.312,31.184 28.919,33.604 22.971,33.605 C11.076,33.605 1.396,23.929 1.395,12.033 C1.395,8.518 2.24,5.197 3.737,2.262 L3.737,0.425 C1.684,3.815 0.501,7.789 0.501,12.033" id="path-16"></path>
        <linearGradient x1="50.003478%" y1="100.00096%" x2="49.9942227%" y2="-0.00389123672%" id="linearGradient-18">
            <stop stop-color="#026EB8" offset="0%"></stop>
            <stop stop-color="#2DA7DF" offset="100%"></stop>
        </linearGradient>
        <path d="M0.25,16.033 C0.251,25.877 6.035,34.392 14.382,38.365 C14.421,39.02 14.964,39.54 15.63,39.54 C15.942,39.54 16.227,39.424 16.446,39.235 C19.105,40.215 21.977,40.75 24.971,40.75 C31.787,40.749 37.966,37.976 42.442,33.5 L41.809,32.868 C37.496,37.182 31.54,39.855 24.971,39.855 C22.129,39.856 19.402,39.355 16.872,38.438 C16.878,38.388 16.882,38.338 16.882,38.288 C16.882,37.596 16.321,37.035 15.629,37.035 C15.234,37.036 14.883,37.218 14.654,37.505 C6.668,33.654 1.145,25.476 1.145,16.033 C1.144,10.785 2.851,5.928 5.736,1.986 L5.736,0.521 C2.307,4.766 0.249,10.163 0.25,16.033" id="path-19"></path>
        <linearGradient x1="50.0036232%" y1="100.001056%" x2="49.9936909%" y2="-0.00362847697%" id="linearGradient-21">
            <stop stop-color="#026EB8" offset="0%"></stop>
            <stop stop-color="#2DA7DF" offset="100%"></stop>
        </linearGradient>
        <path d="M0,19.034 C0,22.819 0.777,26.484 2.251,29.85 C1.927,30.077 1.714,30.452 1.714,30.877 C1.714,31.569 2.275,32.13 2.966,32.129 C3.1,32.129 3.228,32.109 3.35,32.07 C4.56,34.256 6.085,36.286 7.901,38.103 C12.995,43.197 19.768,46.001 26.972,46 C34.176,45.999 40.948,43.193 46.041,38.099 L45.409,37.466 C40.691,42.186 34.172,45.105 26.972,45.105 C17.083,45.106 8.479,39.602 4.058,31.49 C4.16,31.308 4.219,31.1 4.219,30.877 C4.218,30.246 3.751,29.726 3.145,29.64 C1.699,26.399 0.895,22.811 0.895,19.033 C0.894,12.246 3.488,6.065 7.736,1.426 L7.736,0.128 C2.746,5.203 -0.001,11.907 0,19.034" id="path-22"></path>
        <linearGradient x1="50.004073%" y1="100.000898%" x2="49.9936944%" y2="-0.00392003834%" id="linearGradient-24">
            <stop stop-color="#026EB8" offset="0%"></stop>
            <stop stop-color="#2DA7DF" offset="100%"></stop>
        </linearGradient>
        <path d="M8.207,0.857 L8.21,27.031 C8.21,31.31 11.692,34.79 15.97,34.79 C20.248,34.79 23.728,31.308 23.728,27.031 C23.727,22.752 20.247,19.272 15.969,19.272 C12.992,19.272 10.405,20.957 9.104,23.423 L9.103,20.831 C10.799,18.954 13.246,17.77 15.969,17.77 C21.075,17.77 25.23,21.923 25.23,27.03 C25.23,32.136 21.077,36.292 15.97,36.292 C10.864,36.292 6.708,32.138 6.708,27.031 L6.706,1.346 C6.405,1.453 6.106,1.564 5.811,1.682 L5.814,27.032 C5.815,32.631 10.37,37.187 15.97,37.186 C21.57,37.186 26.125,32.63 26.125,27.03 C26.124,21.43 21.567,16.875 15.969,16.876 C13.322,16.876 10.912,17.896 9.103,19.561 L9.103,17.878 C11.018,16.438 13.395,15.583 15.968,15.582 C22.281,15.582 27.417,20.717 27.418,27.03 C27.418,33.342 22.283,38.479 15.97,38.479 C9.658,38.48 4.521,33.345 4.521,27.032 L4.513,27.032 L4.511,2.241 C4.21,2.38 3.911,2.523 3.617,2.672 L3.619,27.032 C3.62,33.842 9.161,39.381 15.97,39.381 C22.781,39.38 28.32,33.839 28.319,27.03 C28.318,20.219 22.778,14.68 15.968,14.681 C13.429,14.681 11.068,15.454 9.103,16.773 L9.103,15.434 C11.116,14.237 13.462,13.547 15.968,13.547 C22.08,13.546 27.254,17.635 28.902,23.221 C28.654,23.449 28.497,23.776 28.497,24.141 C28.497,24.689 28.851,25.153 29.342,25.322 C29.413,25.882 29.453,26.451 29.454,27.03 C29.454,34.465 23.406,40.514 15.97,40.515 C8.535,40.516 2.486,34.468 2.485,27.032 L2.483,9.304 C2.905,9.104 3.198,8.673 3.198,8.175 C3.198,7.675 2.905,7.246 2.482,7.044 L2.482,3.281 C2.18,3.452 1.883,3.629 1.587,3.811 L1.588,6.975 C1.071,7.129 0.694,7.608 0.694,8.175 C0.694,8.742 1.071,9.221 1.588,9.374 L1.59,27.032 C1.591,34.974 8.03,41.411 15.97,41.41 C23.912,41.409 30.349,34.97 30.348,27.03 C30.348,26.441 30.308,25.862 30.24,25.293 C30.688,25.102 31.002,24.657 31.002,24.14 C31.002,23.449 30.441,22.888 29.75,22.888 C29.747,22.888 29.743,22.889 29.739,22.889 C27.96,16.967 22.469,12.651 15.968,12.652 C13.481,12.652 11.144,13.287 9.103,14.398 L9.102,0.611 C8.801,0.688 8.503,0.77 8.207,0.857 M9.104,27.031 C9.104,23.241 12.177,20.166 15.969,20.166 C19.759,20.165 22.834,23.239 22.834,27.031 C22.835,30.821 19.761,33.895 15.969,33.896 C12.179,33.896 9.105,30.823 9.104,27.031" id="path-25"></path>
        <linearGradient x1="50.0084064%" y1="99.9998103%" x2="49.994384%" y2="-0.00239589206%" id="linearGradient-27">
            <stop stop-color="#026EB8" offset="0%"></stop>
            <stop stop-color="#2DA7DF" offset="100%"></stop>
        </linearGradient>
    </defs>
    <g id="Page-1" stroke="none" stroke-width="1" fill="none" fill-rule="evenodd">
        <g id="Group-28" transform="translate(0.000000, -1.000000)">
            <g id="Group-3" transform="translate(24.000000, 6.938100)">
                <mask id="mask-2" fill="white">
                    <use xlink:href="#path-1"></use>
                </mask>
                <g id="Clip-2"></g>
                <path d="M0.763,1.031 L0.763,1.926 C1.486,1.844 2.221,1.8 2.967,1.8 C8.278,1.799 13.085,3.951 16.566,7.432 L17.195,6.803 C13.394,3.003 8.342,0.91 2.967,0.91 C2.225,0.911 1.49,0.952 0.763,1.031" id="Fill-1" fill="url(#linearGradient-3)" mask="url(#mask-2)"></path>
            </g>
            <g id="Group-6" transform="translate(24.000000, 4.938100)">
                <mask id="mask-5" fill="white">
                    <use xlink:href="#path-4"></use>
                </mask>
                <g id="Clip-5"></g>
                <path d="M2.967,0.563 C2.223,0.563 1.488,0.601 0.763,0.672 L0.763,1.571 C1.487,1.496 2.222,1.458 2.967,1.458 C8.915,1.457 14.309,3.876 18.215,7.782 L18.847,7.149 C14.779,3.082 9.163,0.563 2.97,0.563 C2.969,0.563 2.968,0.563 2.967,0.563" id="Fill-4" fill="url(#linearGradient-6)" mask="url(#mask-5)"></path>
            </g>
            <g id="Group-9" transform="translate(24.000000, 2.938100)">
                <mask id="mask-8" fill="white">
                    <use xlink:href="#path-7"></use>
                </mask>
                <g id="Clip-8"></g>
                <path d="M2.967,0.312 C2.223,0.312 1.489,0.348 0.762,0.413 L0.762,1.309 C1.488,1.242 2.223,1.207 2.967,1.206 C9.535,1.206 15.492,3.877 19.806,8.191 L20.438,7.558 C15.963,3.083 9.783,0.312 2.97,0.312 C2.969,0.312 2.968,0.312 2.967,0.312" id="Fill-7" fill="url(#linearGradient-9)" mask="url(#mask-8)"></path>
            </g>
            <g id="Group-12" transform="translate(24.000000, 0.938100)">
                <mask id="mask-11" fill="white">
                    <use xlink:href="#path-10"></use>
                </mask>
                <g id="Clip-11"></g>
                <path d="M2.967,0.062 C2.226,0.062 1.492,0.095 0.762,0.154 L0.762,1.052 C1.489,0.991 2.223,0.957 2.967,0.957 C7.906,0.956 12.524,2.329 16.461,4.714 C16.455,4.763 16.451,4.812 16.451,4.863 C16.451,5.555 17.012,6.115 17.703,6.115 C17.927,6.115 18.136,6.055 18.318,5.953 C19.414,6.753 20.447,7.634 21.405,8.591 L22.037,7.959 C21.049,6.971 19.997,6.07 18.891,5.258 C18.933,5.134 18.956,5.001 18.956,4.863 C18.955,4.171 18.395,3.611 17.703,3.611 C17.39,3.611 17.104,3.727 16.884,3.918 C12.728,1.405 7.952,0.062 2.972,0.062 L2.967,0.062 Z" id="Fill-10" fill="url(#linearGradient-12)" mask="url(#mask-11)"></path>
            </g>
            <g id="Group-15" transform="translate(6.000000, 21.938100)">
                <mask id="mask-14" fill="white">
                    <use xlink:href="#path-13"></use>
                </mask>
                <g id="Clip-14"></g>
                <path d="M0.849,6.033 C0.849,11.407 2.942,16.46 6.743,20.26 C10.544,24.059 15.596,26.152 20.971,26.151 C24.582,26.151 28.047,25.204 31.085,23.431 C31.258,23.521 31.454,23.573 31.663,23.573 C32.355,23.573 32.916,23.013 32.915,22.321 C32.915,22.29 32.913,22.259 32.911,22.229 C33.713,21.635 34.478,20.976 35.197,20.257 L34.568,19.628 C33.928,20.268 33.244,20.863 32.518,21.408 C32.294,21.198 31.994,21.069 31.663,21.069 C30.972,21.069 30.411,21.629 30.411,22.322 C30.411,22.47 30.438,22.612 30.486,22.745 C27.681,24.346 24.433,25.262 20.971,25.262 C10.35,25.263 1.739,16.654 1.738,6.033 L1.737,0.087 C1.152,1.988 0.848,3.988 0.849,6.033" id="Fill-13" fill="url(#linearGradient-15)" mask="url(#mask-14)"></path>
            </g>
            <g id="Group-18" transform="translate(4.000000, 15.938100)">
                <mask id="mask-17" fill="white">
                    <use xlink:href="#path-16"></use>
                </mask>
                <g id="Clip-17"></g>
                <path d="M0.501,12.033 C0.503,24.422 10.583,34.5 22.971,34.499 C29.166,34.498 34.783,31.978 38.851,27.909 L38.218,27.277 C34.312,31.184 28.919,33.604 22.971,33.605 C11.076,33.605 1.396,23.929 1.395,12.033 C1.395,8.518 2.24,5.197 3.737,2.262 L3.737,0.425 C1.684,3.815 0.501,7.789 0.501,12.033" id="Fill-16" fill="url(#linearGradient-18)" mask="url(#mask-17)"></path>
            </g>
            <g id="Group-21" transform="translate(2.000000, 11.938100)">
                <mask id="mask-20" fill="white">
                    <use xlink:href="#path-19"></use>
                </mask>
                <g id="Clip-20"></g>
                <path d="M0.25,16.033 C0.251,25.877 6.035,34.392 14.382,38.365 C14.421,39.02 14.964,39.54 15.63,39.54 C15.942,39.54 16.227,39.424 16.446,39.235 C19.105,40.215 21.977,40.75 24.971,40.75 C31.787,40.749 37.966,37.976 42.442,33.5 L41.809,32.868 C37.496,37.182 31.54,39.855 24.971,39.855 C22.129,39.856 19.402,39.355 16.872,38.438 C16.878,38.388 16.882,38.338 16.882,38.288 C16.882,37.596 16.321,37.035 15.629,37.035 C15.234,37.036 14.883,37.218 14.654,37.505 C6.668,33.654 1.145,25.476 1.145,16.033 C1.144,10.785 2.851,5.928 5.736,1.986 L5.736,0.521 C2.307,4.766 0.249,10.163 0.25,16.033" id="Fill-19" fill="url(#linearGradient-21)" mask="url(#mask-20)"></path>
            </g>
            <g id="Group-24" transform="translate(0.000000, 8.938100)">
                <mask id="mask-23" fill="white">
                    <use xlink:href="#path-22"></use>
                </mask>
                <g id="Clip-23"></g>
                <path d="M0,19.034 C0,22.819 0.777,26.484 2.251,29.85 C1.927,30.077 1.714,30.452 1.714,30.877 C1.714,31.569 2.275,32.13 2.966,32.129 C3.1,32.129 3.228,32.109 3.35,32.07 C4.56,34.256 6.085,36.286 7.901,38.103 C12.995,43.197 19.768,46.001 26.972,46 C34.176,45.999 40.948,43.193 46.041,38.099 L45.409,37.466 C40.691,42.186 34.172,45.105 26.972,45.105 C17.083,45.106 8.479,39.602 4.058,31.49 C4.16,31.308 4.219,31.1 4.219,30.877 C4.218,30.246 3.751,29.726 3.145,29.64 C1.699,26.399 0.895,22.811 0.895,19.033 C0.894,12.246 3.488,6.065 7.736,1.426 L7.736,0.128 C2.746,5.203 -0.001,11.907 0,19.034" id="Fill-22" fill="url(#linearGradient-24)" mask="url(#mask-23)"></path>
            </g>
            <g id="Group-27" transform="translate(11.000000, 0.938100)">
                <mask id="mask-26" fill="white">
                    <use xlink:href="#path-25"></use>
                </mask>
                <g id="Clip-26"></g>
                <path d="M8.207,0.857 L8.21,27.031 C8.21,31.31 11.692,34.79 15.97,34.79 C20.248,34.79 23.728,31.308 23.728,27.031 C23.727,22.752 20.247,19.272 15.969,19.272 C12.992,19.272 10.405,20.957 9.104,23.423 L9.103,20.831 C10.799,18.954 13.246,17.77 15.969,17.77 C21.075,17.77 25.23,21.923 25.23,27.03 C25.23,32.136 21.077,36.292 15.97,36.292 C10.864,36.292 6.708,32.138 6.708,27.031 L6.706,1.346 C6.405,1.453 6.106,1.564 5.811,1.682 L5.814,27.032 C5.815,32.631 10.37,37.187 15.97,37.186 C21.57,37.186 26.125,32.63 26.125,27.03 C26.124,21.43 21.567,16.875 15.969,16.876 C13.322,16.876 10.912,17.896 9.103,19.561 L9.103,17.878 C11.018,16.438 13.395,15.583 15.968,15.582 C22.281,15.582 27.417,20.717 27.418,27.03 C27.418,33.342 22.283,38.479 15.97,38.479 C9.658,38.48 4.521,33.345 4.521,27.032 L4.513,27.032 L4.511,2.241 C4.21,2.38 3.911,2.523 3.617,2.672 L3.619,27.032 C3.62,33.842 9.161,39.381 15.97,39.381 C22.781,39.38 28.32,33.839 28.319,27.03 C28.318,20.219 22.778,14.68 15.968,14.681 C13.429,14.681 11.068,15.454 9.103,16.773 L9.103,15.434 C11.116,14.237 13.462,13.547 15.968,13.547 C22.08,13.546 27.254,17.635 28.902,23.221 C28.654,23.449 28.497,23.776 28.497,24.141 C28.497,24.689 28.851,25.153 29.342,25.322 C29.413,25.882 29.453,26.451 29.454,27.03 C29.454,34.465 23.406,40.514 15.97,40.515 C8.535,40.516 2.486,34.468 2.485,27.032 L2.483,9.304 C2.905,9.104 3.198,8.673 3.198,8.175 C3.198,7.675 2.905,7.246 2.482,7.044 L2.482,3.281 C2.18,3.452 1.883,3.629 1.587,3.811 L1.588,6.975 C1.071,7.129 0.694,7.608 0.694,8.175 C0.694,8.742 1.071,9.221 1.588,9.374 L1.59,27.032 C1.591,34.974 8.03,41.411 15.97,41.41 C23.912,41.409 30.349,34.97 30.348,27.03 C30.348,26.441 30.308,25.862 30.24,25.293 C30.688,25.102 31.002,24.657 31.002,24.14 C31.002,23.449 30.441,22.888 29.75,22.888 C29.747,22.888 29.743,22.889 29.739,22.889 C27.96,16.967 22.469,12.651 15.968,12.652 C13.481,12.652 11.144,13.287 9.103,14.398 L9.102,0.611 C8.801,0.688 8.503,0.77 8.207,0.857 M9.104,27.031 C9.104,23.241 12.177,20.166 15.969,20.166 C19.759,20.165 22.834,23.239 22.834,27.031 C22.835,30.821 19.761,33.895 15.969,33.896 C12.179,33.896 9.105,30.823 9.104,27.031" id="Fill-25" fill="url(#linearGradient-27)" mask="url(#mask-26)"></path>
            </g>
        </g>
    </g>
</svg>