<?xml version="1.0" encoding="UTF-8"?>
<svg width="310px" height="75px" viewBox="0 0 310 75" version="1.1" xmlns="http://www.w3.org/2000/svg" xmlns:xlink="http://www.w3.org/1999/xlink">
    <!-- Generator: Sketch 52.2 (67145) - http://www.bohemiancoding.com/sketch -->
    <title>logo</title>
    <desc>Created with Sketch.</desc>
    <defs>
        <polygon id="path-1" points="0.972765957 0.0791489362 28.1323404 0.0791489362 28.1323404 10.968383 0.972765957 10.968383"></polygon>
        <polygon id="path-3" points="0 0.162893617 58.7757447 0.162893617 58.7757447 58.722894 0 58.722894"></polygon>
    </defs>
    <g id="Page-1" stroke="none" stroke-width="1" fill="none" fill-rule="evenodd">
        <g id="home2" transform="translate(-200.000000, -17.000000)">
            <g id="top" transform="translate(200.000000, 17.000000)">
                <g id="Group-3">
                    <text id="数字版权综合服务平台" font-family="PingFangSC-Semibold, PingFang SC" font-size="24" font-weight="500" letter-spacing="-1.090909" fill="#FFFFFF">
                        <tspan x="77" y="46">数字版权综合服务平</tspan>
                        <tspan x="283.181819" y="46" letter-spacing="-1.13834">台</tspan>
                    </text>
                    <g id="tianfutv_logo" transform="translate(2.000000, 2.000000)">
                        <path d="M31.6117021,10.1733191 L31.6117021,11.3158723 C32.5359574,11.2111915 33.4742553,11.1550213 34.4265957,11.1550213 C41.2053191,11.1550213 47.3431915,13.9022553 51.7857447,18.3435319 L52.5887234,17.5405532 C47.7376596,12.6894894 41.2870213,10.0188511 34.4265957,10.0201277 C33.4793617,10.0201277 32.5397872,10.0724681 31.6117021,10.1733191" id="Fill-1" fill="#FFFFFF"></path>
                        <path d="M34.4257021,7.02255319 C33.4759149,7.02255319 32.537617,7.07106383 31.6108085,7.16170213 L31.6120851,8.3093617 C32.537617,8.21489362 33.4759149,8.16382979 34.4257021,8.16382979 C42.0188936,8.16382979 48.9048511,11.2519149 53.8925106,16.2382979 L54.6993191,15.4314894 C49.5048511,10.2382979 42.3329362,7.0212766 34.4257021,7.02255319" id="Fill-3" fill="#FFFFFF"></path>
                        <path d="M31.6110638,4.27787234 L31.6110638,5.42170213 C32.5378723,5.33617021 33.4761702,5.29021277 34.4259574,5.29021277 C42.8106383,5.29021277 50.4153191,8.7 55.9225532,14.207234 L56.7293617,13.3991489 C51.0153191,7.68638298 43.1259574,4.14765957 34.4259574,4.14893617 C33.4761702,4.14893617 32.5391489,4.19489362 31.6110638,4.27787234" id="Fill-5" fill="#FFFFFF"></path>
                        <g id="Group-9" transform="translate(30.638298, 1.197574)">
                            <g id="Fill-7-Clipped">
                                <mask id="mask-2" fill="white">
                                    <use xlink:href="#path-1"></use>
                                </mask>
                                <g id="path-1"></g>
                                <path d="M24.1161702,6.71221277 C24.1685106,6.55391489 24.1991489,6.38412766 24.1991489,6.20795745 C24.1991489,5.32455319 23.4829787,4.60965957 22.5995745,4.60965957 C22.2,4.60965957 21.8348936,4.75774468 21.5540426,5.00157447 C16.2459574,1.79221277 10.1489362,0.0777446809 3.78638298,0.0790212766 C2.84170213,0.0790212766 1.90340426,0.121148936 0.972765957,0.196468085 L0.972765957,1.34285106 C1.90085106,1.26497872 2.83914894,1.22029787 3.78638298,1.22029787 C10.092766,1.22029787 15.9880851,2.97306383 21.0140426,6.01774468 C21.006383,6.08029787 21.0012766,6.14412766 21.0012766,6.20795745 C21.0012766,7.09008511 21.7174468,7.80625532 22.6008511,7.80625532 C22.8855319,7.80625532 23.153617,7.73093617 23.3846809,7.59944681 C24.7851064,8.6207234 26.1025532,9.74540426 27.3255319,10.968383 L28.1323404,10.1602979 C26.8710638,8.89902128 25.5280851,7.74880851 24.1161702,6.71221277" id="Fill-7" fill="#FFFFFF" mask="url(#mask-2)"></path>
                            </g>
                        </g>
                        <path d="M9.87778723,28.1168936 C9.13097872,30.5437021 8.74289362,33.095617 8.74289362,35.7075319 C8.74417021,42.569234 11.4160851,49.0185957 16.2684255,53.8696596 C21.1194894,58.7207234 27.5701277,61.3913617 34.4318298,61.3900851 C39.041617,61.3900851 43.4650213,60.1824255 47.3433191,57.9177447 C47.5641702,58.0339149 47.814383,58.1002979 48.0811915,58.0990213 C48.9633191,58.0990213 49.6794894,57.3841277 49.6794894,56.5007234 C49.6794894,56.4611489 49.6756596,56.4228511 49.6731064,56.3832766 C50.6982128,55.6249787 51.6748085,54.7837021 52.5926809,53.8658298 C52.5926809,53.8658298 52.5926809,53.8658298 52.5926809,53.8658298 L51.7897021,53.0628511 C50.9726809,53.8798723 50.0982128,54.6394468 49.1726809,55.3351915 C48.8867234,55.068383 48.5037447,54.9024255 48.0811915,54.9024255 C47.1977872,54.9024255 46.4828936,55.6185957 46.4828936,56.5007234 C46.4828936,56.6909362 46.5173617,56.8734894 46.5786383,57.042 C42.9965106,59.0858298 38.8501277,60.2551915 34.4318298,60.2551915 C20.8731064,60.2564681 9.88034043,49.2662553 9.87906383,35.7075319 L9.87778723,28.1168936 Z" id="Fill-10" fill="#FFFFFF"></path>
                        <path d="M6.88774468,35.7080426 C6.88774468,31.2208085 7.96646809,26.981234 9.87753191,23.2344255 L9.87753191,20.8893191 C7.25540426,25.2169787 5.74519149,30.2901702 5.74646809,35.7080426 C5.74774468,51.5237872 18.6158298,64.3893191 34.4315745,64.3880426 C42.3400851,64.386766 49.5094468,61.1697447 54.7026383,55.9752766 L53.8958298,55.1684681 C48.9094468,60.1561277 42.024766,63.2454894 34.4315745,63.2454894 C19.2451915,63.2480426 6.88902128,50.8944255 6.88774468,35.7080426" id="Fill-12" fill="#FFFFFF"></path>
                        <path d="M24.0919149,64.3100426 C24.0995745,64.2462128 24.1046809,64.182383 24.1046809,64.1172766 C24.1046809,63.2351489 23.3885106,62.5189787 22.506383,62.5189787 C22.0021277,62.5189787 21.552766,62.7538723 21.2591489,63.1189787 C11.0655319,58.2015319 4.01489362,47.7628085 4.01361702,35.7079149 C4.01361702,29.0083404 6.19276596,22.8079149 9.87702128,17.7755745 L9.87702128,15.9053617 C5.49829787,21.3245106 2.87106383,28.2155745 2.87234043,35.7079149 C2.87361702,48.2734468 10.2574468,59.1449362 20.9131915,64.2168511 C20.9642553,65.0530213 21.6561702,65.7168511 22.506383,65.7155745 C22.9046809,65.7155745 23.2685106,65.568766 23.5480851,65.3274894 C26.9425532,66.5785532 30.6089362,67.2615319 34.4323404,67.2615319 C43.1323404,67.2602553 51.0204255,63.7202553 56.7344681,58.0062128 L55.9276596,57.1994043 C50.4204255,62.7066383 42.8170213,66.1189787 34.4323404,66.1202553 C30.8029787,66.1202553 27.3217021,65.4806809 24.0919149,64.3100426" id="Fill-14" fill="#FFFFFF"></path>
                        <g id="Group-18" transform="translate(0.000000, 11.410340)">
                            <g id="Fill-16-Clipped">
                                <mask id="mask-4" fill="white">
                                    <use xlink:href="#path-3"></use>
                                </mask>
                                <g id="path-3"></g>
                                <path d="M57.9684255,47.8297021 C51.9454468,53.8539574 43.6245957,57.5803404 34.4318298,57.581617 C21.8075745,57.5828936 10.8250213,50.5565106 5.18119149,40.1994894 C5.31140426,39.9684255 5.38544681,39.701617 5.38544681,39.4182128 C5.38544681,38.6126809 4.7892766,37.9475745 4.01438298,37.8377872 C2.16970213,33.701617 1.14204255,29.1199149 1.14204255,24.2982128 C1.14076596,15.6339574 4.45097872,7.74331915 9.87651064,1.81991489 L9.87651064,0.162893617 C3.50502128,6.64161702 -0.000510638298,15.1999149 -0.000510638298,24.2982128 C0.000765957447,29.1301277 0.991404255,33.8101277 2.87310638,38.1071489 C2.45948936,38.3969362 2.18885106,38.8756596 2.18885106,39.4182128 C2.18885106,40.301617 2.90502128,41.0165106 3.78714894,41.0165106 C3.95821277,41.0165106 4.12161702,40.9897021 4.27608511,40.9399149 C5.82204255,43.7318298 7.76757447,46.3233191 10.0858723,48.641617 C16.5901277,55.1445957 25.2365106,58.7241702 34.4318298,58.7228936 C43.6284255,58.7228936 52.2735319,55.140766 58.775234,48.6365106 C58.775234,48.6365106 58.775234,48.6365106 58.7765106,48.6365106 L57.9684255,47.8297021 Z" id="Fill-16" fill="#FFFFFF" mask="url(#mask-4)"></path>
                            </g>
                        </g>
                        <path d="M34.4277447,26.9416596 C39.2673191,26.9416596 43.1915745,30.8646383 43.1915745,35.7042128 C43.1928511,40.5437872 39.2698723,44.4680426 34.4290213,44.4680426 C29.5894468,44.4693191 25.6651915,40.5463404 25.6651915,35.7054894 C25.6651915,30.8659149 29.5881702,26.9416596 34.4277447,26.9416596 M16.0702979,13.1646383 L16.0728511,35.706766 C16.0741277,45.8454894 24.2928511,54.0629362 34.4302979,54.0616596 C44.5677447,54.060383 52.7864681,45.8416596 52.7851915,35.7029362 C52.7851915,34.9522979 52.7341277,34.2131489 52.6460426,33.4854894 C53.219234,33.2429362 53.6200851,32.6761277 53.6200851,32.0148511 C53.6200851,31.1314468 52.9039149,30.4165532 52.0205106,30.4165532 C52.0166809,30.4165532 52.0128511,30.4165532 52.0077447,30.4165532 C49.7366809,22.8565532 42.7268936,17.3480426 34.4264681,17.3493191 C31.2515745,17.3493191 28.2681702,18.1586809 25.6639149,19.5782553 L25.6613617,1.97782979 C25.278383,2.07485106 24.8979574,2.18080851 24.5200851,2.29187234 L24.5239149,35.706766 C24.5239149,41.1680426 28.9677447,45.6105957 34.4302979,45.6105957 C39.8915745,45.6093191 44.3341277,41.1654894 44.3341277,35.7042128 C44.3328511,30.2429362 39.8890213,25.7991064 34.4277447,25.800383 C30.6285957,25.800383 27.324766,27.9514468 25.6651915,31.0995319 L25.6639149,27.7893191 C27.8290213,25.3944255 30.9528511,23.8829362 34.4277447,23.8829362 C40.9460426,23.8816596 46.2502979,29.1846383 46.2515745,35.7042128 C46.2515745,42.2225106 40.9485957,47.526766 34.4302979,47.5280426 C27.9107234,47.5280426 22.6064681,42.2250638 22.6064681,35.706766 L22.6026383,2.91485106 C22.2196596,3.05144681 21.8379574,3.19442553 21.4613617,3.34506383 L21.4639149,35.706766 C21.4651915,42.8544255 27.2813617,48.6705957 34.4302979,48.6693191 C41.579234,48.6693191 47.3941277,42.8518723 47.3928511,35.7042128 C47.3928511,28.5552766 41.5754043,22.740383 34.4277447,22.740383 C31.0498723,22.7416596 27.9732766,24.0437872 25.6639149,26.1693191 L25.6639149,24.0195319 C28.1073191,22.1825106 31.1417872,21.0897447 34.4277447,21.0897447 C42.485617,21.0884681 49.0434894,27.6450638 49.044766,35.7042128 C49.044766,43.7620851 42.4894468,50.3199574 34.4302979,50.321234 C26.3711489,50.321234 19.8132766,43.7659149 19.8132766,35.706766 L19.8043404,35.706766 L19.8005106,4.05868085 C19.4162553,4.23485106 19.0358298,4.41868085 18.659234,4.60889362 L18.6630638,35.706766 C18.6630638,44.400383 25.7366809,51.4714468 34.4302979,51.4714468 C43.1239149,51.4701702 50.1962553,44.3965532 50.1949787,35.7029362 C50.1937021,27.0105957 43.1200851,19.9382553 34.4264681,19.9395319 C31.1851915,19.9395319 28.1711489,20.9263404 25.6639149,22.6101702 L25.6639149,20.9008085 C28.2324255,19.3727234 31.2273191,18.4905957 34.4264681,18.4905957 C42.2302979,18.4905957 48.8341277,23.7105957 50.939234,30.840383 C50.6226383,31.1327234 50.4222128,31.5501702 50.4222128,32.0148511 C50.4222128,32.7144255 50.8741277,33.3080426 51.4996596,33.5250638 C51.5902979,34.2386809 51.6426383,34.9650638 51.6426383,35.7029362 C51.6439149,45.1957021 43.9230638,52.9191064 34.4302979,52.9191064 C24.9388085,52.920383 17.2154043,45.1995319 17.2141277,35.706766 L17.2115745,13.0752766 C17.7515745,12.8186809 18.125617,12.2697447 18.125617,11.6327234 C18.125617,10.9957021 17.7515745,10.446766 17.2115745,10.1901702 L17.2115745,5.38634043 C16.8260426,5.6046383 16.445617,5.83059574 16.0690213,6.06293617 L16.0702979,10.1020851 C15.4102979,10.2986809 14.9277447,10.9088936 14.9277447,11.6327234 C14.9277447,12.3578298 15.4102979,12.9680426 16.0702979,13.1646383" id="Fill-19" fill="#FFFFFF" fill-rule="nonzero"></path>
                    </g>
                </g>
            </g>
        </g>
    </g>
</svg>